<svg width="872" height="778" viewBox="0 0 872 778" fill="none" xmlns="http://www.w3.org/2000/svg">
<path d="M836.243 310.913C819.322 310.913 808.175 279.787 805.174 270.234C793.398 233.285 776.42 198.803 754.811 167.505H537.183V395.856H504.027L415.22 288.537V398.065H375.491V219.544H408.675L497.481 326.863V222.9H497.367V128.06H723.599C706.506 109.155 687.499 91.8281 666.662 76.3369C599.55 26.3923 519.804 0 436.029 0C352.253 0 272.507 26.3923 205.395 76.3369C190.618 87.3529 176.727 99.2581 163.807 112.024V303.684L234.95 219.573H283.626L213.798 300.385L287.342 398.065H237.808L188.045 329.933L163.836 357.96V398.036H124.106V157.895C99.2104 191.689 79.86 229.47 66.8549 270.234C63.8537 279.787 52.7064 310.913 35.7855 310.913C1.74354 310.913 0 375.947 0 388.971C0 401.995 1.71496 467.03 35.7855 467.03C52.3063 467.03 63.4249 497.122 66.4261 506.36C66.4261 506.36 66.4261 506.388 66.4261 506.417C70.0561 517.892 74.2292 529.224 78.9167 540.297H176.184C176.184 540.297 176.184 540.297 176.212 540.297C181.729 540.297 186.273 539.063 189.875 536.596C193.476 534.129 195.277 530.916 195.277 526.957C195.277 523.802 194.305 521.162 192.39 519.097C190.475 517.031 187.417 515.253 183.215 513.761C179.013 512.269 173.182 510.835 165.694 509.458C152.203 506.876 142.084 502.602 135.396 496.549C128.708 490.524 125.335 482.004 125.335 471.046C125.335 463.931 127.479 457.735 131.766 452.514C136.054 447.264 141.884 443.248 149.287 440.436C156.662 437.625 164.951 436.219 174.126 436.219C182.986 436.219 191.018 437.912 198.221 441.268C205.424 444.625 211.14 449.301 215.428 455.296C219.715 461.292 222.059 468.062 222.43 475.693H194.648C193.848 470.357 191.532 466.198 187.702 463.243C183.872 460.288 178.727 458.796 172.325 458.796C166.208 458.796 161.435 459.915 158.005 462.124C154.546 464.333 152.832 467.345 152.832 471.103C152.832 474.058 153.918 476.496 156.09 478.361C158.262 480.226 161.578 481.889 166.065 483.324C170.553 484.758 177.07 486.365 185.644 488.143C198.935 490.926 208.482 495.487 214.227 501.856C220.001 508.224 222.859 516.228 222.859 525.81C222.859 531.117 221.773 535.965 219.629 540.354C218.743 542.162 217.686 543.911 216.457 545.547C212.169 551.198 206.338 555.501 198.935 558.513C191.532 561.526 183.329 563.046 174.269 563.046H89.3494C116.474 617.093 156.176 664.943 204.766 701.233C271.993 751.464 351.938 778 435.971 778C490.736 778 543.728 766.726 592.633 744.981V439.203H619.529V731.727C635.993 722.806 651.942 712.622 667.205 701.233C732.145 652.694 781.279 583.529 805.574 506.446C805.574 506.446 805.574 506.417 805.574 506.388C808.575 497.151 819.694 467.058 836.215 467.058C870.257 467.058 872 402.024 872 389C872 375.976 870.285 310.942 836.215 310.942L836.243 310.913ZM286.484 133.31C279.681 130.872 276.137 123.355 278.567 116.557C280.996 109.729 288.456 106.172 295.259 108.61L311.065 114.262V97.4221C311.065 90.1642 316.925 84.312 324.127 84.312C331.33 84.312 337.19 90.1929 337.19 97.4221V114.262L352.996 108.61C359.799 106.172 367.259 109.729 369.688 116.557C372.118 123.384 368.573 130.872 361.771 133.31L345.45 139.162L356.026 152.932C360.427 158.67 359.37 166.903 353.653 171.321C351.281 173.157 348.48 174.046 345.679 174.046C341.763 174.046 337.904 172.296 335.332 168.94L324.127 154.338L312.894 168.94C310.322 172.296 306.435 174.046 302.548 174.046C299.775 174.046 296.945 173.157 294.573 171.321C288.856 166.903 287.799 158.67 292.201 152.932L302.776 139.162L286.455 133.31H286.484ZM344.021 219.544V398.065H304.291V219.544H344.021ZM329.558 560.091H238.665V439.203H328.215V462.64H265.562V487.254H323.041V510.692H265.562V536.654H329.558V560.091ZM462.125 532.121C456.522 541.76 448.748 549.333 438.858 554.813C428.969 560.292 417.85 563.046 405.531 563.046C393.212 563.046 382.122 560.292 372.203 554.813C362.314 549.333 354.539 541.76 348.937 532.121C343.335 522.482 340.505 511.638 340.505 499.561C340.505 487.484 343.306 476.64 348.937 467.001C354.539 457.362 362.314 449.788 372.203 444.309C382.093 438.83 393.212 436.076 405.531 436.076C417.85 436.076 428.969 438.83 438.858 444.309C448.748 449.788 456.522 457.362 462.125 467.001C467.727 476.64 470.556 487.484 470.556 499.561C470.556 511.638 467.755 522.482 462.125 532.121ZM573.111 515.425C573.111 524.92 571.11 533.268 567.137 540.498C563.136 547.727 557.505 553.264 550.216 557.194C542.928 561.095 534.496 563.046 524.949 563.046C515.488 563.046 507.228 561.153 500.111 557.337C493.022 553.522 487.535 548.329 483.647 541.76C479.76 535.191 477.759 527.904 477.674 519.872H504.57C504.57 522.941 505.37 525.925 506.999 528.851C508.629 531.777 510.972 534.129 514.031 535.965C517.089 537.801 520.719 538.719 524.978 538.719C531.581 538.719 536.783 536.596 540.555 532.35C544.328 528.105 546.243 522.453 546.243 515.454V439.231H573.14V515.454L573.111 515.425ZM607.096 390.291C592.633 382.201 581.286 371.013 573.054 356.784C564.851 342.555 560.735 326.519 560.735 308.704C560.735 290.889 564.851 274.853 573.054 260.624C581.286 246.395 592.633 235.207 607.096 227.117C621.559 219.028 637.822 214.954 655.858 214.954C670.978 214.954 684.784 217.593 697.217 222.843C709.65 228.093 720.055 235.265 728.429 244.301C736.804 253.366 742.721 263.493 746.208 274.738H702.562C698.646 267.882 692.644 262.288 684.555 257.985C676.495 253.682 667.205 251.53 656.744 251.53C646.111 251.53 636.536 253.969 627.933 258.874C619.358 263.78 612.612 270.55 607.753 279.242C602.866 287.935 600.436 297.746 600.436 308.704C600.436 319.663 602.866 329.56 607.753 338.367C612.612 347.203 619.358 354.116 627.933 359.079C636.507 364.042 646.111 366.538 656.744 366.538C665.605 366.538 673.693 364.931 680.982 361.718C688.242 358.505 694.187 354.231 698.76 348.895C703.334 343.559 706.363 337.908 707.821 331.912H653.486V298.176H750.152V308.704C750.152 326.519 746.036 342.555 737.833 356.784C729.601 371.013 718.34 382.201 704.02 390.291C689.7 398.409 673.636 402.454 655.886 402.454C637.851 402.454 621.559 398.409 607.096 390.291ZM750.295 558.599H727.829L667.691 485.934V560.091H640.795V439.203H663.261L723.399 511.868V437.711H750.295V558.599Z" fill="#FAFAFA"/>
</svg>
