<svg width="26" height="27" viewBox="0 0 26 27" fill="none" xmlns="http://www.w3.org/2000/svg">
<rect y="0.5" width="26" height="26" rx="13" fill="#FF7700"/>
<path fill-rule="evenodd" clip-rule="evenodd" d="M10.2755 8.20931C9.80527 7.84652 9.51263 7.78492 9.37971 7.81207C8.69524 7.95188 8.29115 8.22754 7.7313 8.81349C6.96041 9.62033 6.61306 10.1959 6.76833 11.0665C6.95148 12.0935 7.85422 13.6897 10.3931 16.347C12.9317 19.0041 14.4662 19.9592 15.4532 20.155C15.9049 20.2446 16.244 20.1745 16.5488 20.0174C16.8786 19.8474 17.2011 19.5585 17.579 19.1457C17.9147 18.779 18.1134 18.5283 18.2511 18.2851C18.3812 18.0552 18.4749 17.7995 18.5479 17.4078C18.5739 17.2687 18.5151 16.9624 18.1684 16.4702C17.8482 16.0156 17.3941 15.5612 16.9709 15.1877C16.7252 14.9708 16.3367 14.9503 16.015 15.2024L14.9428 16.0425C13.9403 16.828 12.5399 16.7152 11.6559 15.79L10.9252 15.0252C10.0413 14.1001 9.93351 12.6343 10.684 11.585L11.4866 10.4629C11.7275 10.1261 11.7078 9.71953 11.5006 9.46231C11.1439 9.01952 10.7097 8.54433 10.2755 8.20931ZM11.2182 6.87078C11.7978 7.318 12.3248 7.90581 12.7152 8.39031C13.4528 9.3058 13.3905 10.5758 12.7585 11.4594L11.9559 12.5815C11.6834 12.9625 11.718 13.5033 12.0487 13.8494L12.7793 14.6142C13.11 14.9602 13.6267 14.9964 13.9907 14.7113L15.0628 13.8712C15.907 13.2098 17.1204 13.1445 17.9951 13.9164C18.4581 14.325 19.0198 14.8767 19.4472 15.4834C19.8481 16.0525 20.2685 16.8628 20.1073 17.7266C20.0071 18.2636 19.8591 18.7068 19.618 19.1327C19.3845 19.5452 19.0823 19.9071 18.7262 20.2962C18.3128 20.7477 17.8351 21.208 17.2508 21.5092C16.6415 21.8233 15.9525 21.9465 15.1573 21.7888C13.6505 21.4899 11.8157 20.1876 9.26963 17.5228C6.72379 14.8582 5.48727 12.9458 5.20652 11.3716C4.89789 9.6411 5.762 8.52296 6.60787 7.63764C7.31108 6.90164 7.98533 6.40262 9.0754 6.17997C9.90057 6.01142 10.6745 6.45132 11.2182 6.87078Z" fill="white"/>
</svg>
