<svg width="26" height="27" viewBox="0 0 26 27" fill="none" xmlns="http://www.w3.org/2000/svg">
<rect y="0.5" width="26" height="26" rx="13" fill="#FF7700"/>
<path fill-rule="evenodd" clip-rule="evenodd" d="M11.1304 6.9165H14.869C15.6955 6.9165 16.3622 6.91649 16.9017 6.9613C17.4573 7.00744 17.945 7.10495 18.395 7.3387C19.0799 7.69449 19.6384 8.25294 19.9941 8.93785C20.2279 9.38785 20.3254 9.87551 20.3715 10.4311C20.4164 10.9707 20.4163 11.6373 20.4163 12.4638V13.5358C20.4163 14.3624 20.4164 15.029 20.3715 15.5685C20.3254 16.1242 20.2279 16.6118 19.9941 17.0618C19.6384 17.7467 19.0799 18.3052 18.395 18.661C17.945 18.8947 17.4573 18.9922 16.9017 19.0384C16.3622 19.0832 15.6955 19.0832 14.869 19.0832H11.1303C10.3038 19.0832 9.63717 19.0832 9.09763 19.0384C8.54202 18.9922 8.05436 18.8947 7.60435 18.661C6.91944 18.3052 6.36099 17.7467 6.00521 17.0618C5.77145 16.6118 5.67394 16.1242 5.6278 15.5686C5.58299 15.029 5.583 14.3624 5.58301 13.5358V12.4638C5.583 11.6373 5.58299 10.9707 5.6278 10.4311C5.67394 9.87551 5.77145 9.38785 6.00521 8.93785C6.36099 8.25294 6.91944 7.69449 7.60435 7.3387C8.05436 7.10495 8.54202 7.00744 9.09763 6.9613C9.63718 6.91649 10.3038 6.9165 11.1304 6.9165ZM8.97883 8.48162C9.38327 8.63978 9.75706 8.87592 10.0773 9.18087L11.4681 10.5055C11.7885 10.8106 12.0032 11.0146 12.1801 11.1624C12.3517 11.3059 12.4495 11.3631 12.5225 11.3933C12.8281 11.5195 13.1712 11.5195 13.4768 11.3933C13.5499 11.3631 13.6476 11.3059 13.8193 11.1624C13.9961 11.0146 14.2108 10.8106 14.5312 10.5055L15.9221 9.18087C16.2423 8.87592 16.6161 8.63978 17.0205 8.48162C16.9461 8.47193 16.8654 8.46344 16.7776 8.45615C16.3074 8.41711 15.7032 8.4165 14.8363 8.4165H11.163C10.2962 8.4165 9.69193 8.41711 9.22177 8.45615C9.13397 8.46344 9.05329 8.47193 8.97883 8.48162ZM18.7182 9.74984H18.2497C17.7682 9.74984 17.3052 9.93504 16.9566 10.2671L15.5485 11.6081C15.2498 11.8926 14.9999 12.1306 14.7813 12.3133C14.5532 12.5039 14.3216 12.6673 14.0494 12.7797C13.3771 13.0573 12.6222 13.0573 11.95 12.7797C11.6777 12.6673 11.4461 12.5039 11.2181 12.3133C10.9995 12.1306 10.7496 11.8926 10.4509 11.6082L9.04278 10.2671C8.69414 9.93504 8.23113 9.74984 7.74967 9.74984H7.28117C7.20668 9.93586 7.15376 10.1807 7.12266 10.5553C7.08361 11.0254 7.08301 11.6297 7.08301 12.4965V13.5032C7.08301 14.37 7.08361 14.9743 7.12266 15.4444C7.16095 15.9056 7.23233 16.1702 7.33633 16.3704C7.5498 16.7813 7.88487 17.1164 8.29582 17.3299C8.49603 17.4339 8.76059 17.5052 9.22177 17.5435C9.69193 17.5826 10.2962 17.5832 11.163 17.5832H14.8363C15.7032 17.5832 16.3074 17.5826 16.7776 17.5435C17.2388 17.5052 17.5033 17.4339 17.7035 17.3299C18.1145 17.1164 18.4496 16.7813 18.663 16.3704C18.767 16.1702 18.8384 15.9056 18.8767 15.4444C18.9157 14.9743 18.9163 14.37 18.9163 13.5032V12.4965C18.9163 11.6297 18.9157 11.0254 18.8767 10.5553C18.8456 10.1807 18.7927 9.93586 18.7182 9.74984Z" fill="white"/>
</svg>
