<svg width="26" height="27" viewBox="0 0 26 27" fill="none" xmlns="http://www.w3.org/2000/svg">
<rect y="0.5" width="26" height="26" rx="13" fill="#FF7700"/>
<path fill-rule="evenodd" clip-rule="evenodd" d="M13 9.40625C11.2914 9.40625 9.90625 10.7914 9.90625 12.5C9.90625 14.2086 11.2914 15.5938 13 15.5938C14.7086 15.5938 16.0938 14.2086 16.0938 12.5C16.0938 10.7914 14.7086 9.40625 13 9.40625ZM13 11.0937C12.2233 11.0937 11.5937 11.7233 11.5937 12.5C11.5937 13.2767 12.2233 13.9062 13 13.9062C13.7766 13.9062 14.4062 13.2766 14.4062 12.5C14.4062 11.7233 13.7766 11.0937 13 11.0937Z" fill="white"/>
<path fill-rule="evenodd" clip-rule="evenodd" d="M12.2645 22.0241C12.352 22.0842 12.4217 22.1305 12.4706 22.1626L12.5518 22.2148C12.8256 22.3863 13.1739 22.3866 13.4477 22.2151L13.7355 22.0241C13.9104 21.904 14.157 21.7285 14.4514 21.5024C15.0389 21.0513 15.8238 20.3931 16.6115 19.5648C18.1629 17.9332 19.8438 15.5155 19.8438 12.6364C19.8438 10.7912 19.1272 9.01783 17.8459 7.70742C16.564 6.39637 14.8213 5.65625 13 5.65625C11.1787 5.65625 9.43599 6.39637 8.15407 7.70742C6.87279 9.01783 6.15625 10.7912 6.15625 12.6364C6.15625 15.5155 7.8371 17.9332 9.38855 19.5648C10.1762 20.3931 10.9611 21.0513 11.5486 21.5024C11.843 21.7285 12.0896 21.904 12.2645 22.0241ZM13 7.34375C11.6387 7.34375 10.3292 7.89665 9.36065 8.88718C8.3915 9.87836 7.84375 11.2266 7.84375 12.6364C7.84375 14.8644 9.1629 16.8785 10.6115 18.402C11.3238 19.1511 12.0389 19.7512 12.5764 20.1641C12.7353 20.2861 12.8781 20.3913 13 20.4787C13.1219 20.3913 13.2647 20.2861 13.4236 20.1641C13.9611 19.7512 14.6762 19.1511 15.3885 18.402C16.8371 16.8785 18.1562 14.8644 18.1562 12.6364C18.1562 11.2266 17.6085 9.87836 16.6394 8.88718C15.6708 7.89665 14.3613 7.34375 13 7.34375Z" fill="white"/>
</svg>
