<svg width="24" height="25" viewBox="0 0 24 25" fill="none" xmlns="http://www.w3.org/2000/svg">
<g id="Layer_1" clip-path="url(#clip0_458_23772)">
<path id="Vector" d="M19.3882 9.44949C18.5247 9.44949 17.6825 9.20329 16.9526 8.73745C16.4773 8.43406 16.0618 8.04565 15.7243 7.5937L9.02271 11.1201C9.15509 11.5658 9.22362 12.0323 9.22362 12.5C9.22362 12.9677 9.15509 13.4342 9.02271 13.8799L15.7243 17.4063C16.0618 16.9544 16.4772 16.5659 16.9526 16.2626C17.6825 15.7967 18.5247 15.5505 19.3882 15.5505C20.62 15.5505 21.7781 16.042 22.6492 16.9344C23.5203 17.8268 24 19.0132 24 20.2753C24 21.5373 23.5203 22.7238 22.6492 23.6162C21.7782 24.5085 20.62 25 19.3882 25C18.1563 25 16.9982 24.5085 16.1271 23.6161C15.2561 22.7237 14.7764 21.5373 14.7764 20.2752C14.7764 19.8076 14.8449 19.3411 14.9773 18.8953L8.27566 15.3689C7.93816 15.8209 7.52274 16.2093 7.04737 16.5127C6.31747 16.9785 5.47528 17.2247 4.61182 17.2247C3.37996 17.2247 2.22184 16.7333 1.35077 15.8408C0.479703 14.9485 0 13.762 0 12.5C0 11.238 0.479703 10.0515 1.35077 9.15909C2.22182 8.2667 3.37996 7.77523 4.61182 7.77523C5.47528 7.77523 6.31749 8.02145 7.04737 8.48726C7.52274 8.79065 7.93816 9.17907 8.27566 9.63099L14.9773 6.10462C14.8449 5.65886 14.7764 5.19238 14.7764 4.72468C14.7764 3.46265 15.2561 2.27618 16.1272 1.38381C16.9982 0.491428 18.1563 -4.00543e-05 19.3882 -4.00543e-05C20.6201 -4.00543e-05 21.7782 0.491428 22.6492 1.38381C23.5203 2.27621 24 3.46265 24 4.72468C24 5.98671 23.5203 7.1732 22.6492 8.0656C21.7782 8.95798 20.6201 9.44945 19.3882 9.44945L19.3882 9.44949ZM19.3882 23.3258C21.03 23.3258 22.3658 21.9573 22.3658 20.2752C22.3658 18.5932 21.03 17.2248 19.3882 17.2248C18.2673 17.2248 17.252 17.8597 16.7386 18.8818C16.5209 19.315 16.4106 19.7838 16.4106 20.2752C16.4106 21.9573 17.7463 23.3258 19.3882 23.3258ZM4.61182 9.44949C2.96996 9.44949 1.63423 10.8179 1.63423 12.5C1.63423 14.1821 2.96998 15.5505 4.61182 15.5505C5.73265 15.5505 6.74791 14.9156 7.26138 13.8936C7.26138 13.8935 7.2614 13.8935 7.26142 13.8934C7.47906 13.4602 7.58941 12.9914 7.58941 12.5C7.58941 12.0086 7.47908 11.5399 7.26148 11.1067C7.26148 11.1066 7.26144 11.1066 7.26142 11.1065C6.74795 10.0844 5.73267 9.44949 4.61182 9.44949ZM19.3882 1.67424C17.7463 1.67424 16.4106 3.04268 16.4106 4.72472C16.4106 5.21611 16.5209 5.68492 16.7386 6.11819C17.252 7.14031 18.2673 7.77525 19.3882 7.77525C21.03 7.77525 22.3658 6.40681 22.3658 4.72472C22.3658 3.04264 21.03 1.67424 19.3882 1.67424H19.3882Z" fill="#121212"/>
</g>
<defs>
<clipPath id="clip0_458_23772">
<rect width="24" height="25" fill="white" transform="matrix(1 0 0 -1 0 25)"/>
</clipPath>
</defs>
</svg>
