<svg width="17" height="17" viewBox="0 0 17 17" fill="none" xmlns="http://www.w3.org/2000/svg">
<g id="phone-call-01">
<path id="Icon" d="M9.11696 4.48106C9.96688 4.62351 10.7389 5.02493 11.3553 5.64003C11.9716 6.25512 12.3706 7.0256 12.5166 7.87378M9.24674 1.7002C10.7584 1.95594 12.1371 2.67139 13.2336 3.76237C14.33 4.85659 15.0437 6.23245 15.2999 7.74104M14.1191 13.743C14.1191 13.743 13.2984 14.5491 13.0973 14.7855C12.7696 15.1351 12.3836 15.3002 11.8776 15.3002C11.8289 15.3002 11.777 15.3002 11.7283 15.297C10.7649 15.2354 9.86955 14.8599 9.19805 14.5394C7.36197 13.6524 5.74973 12.3931 4.40998 10.7971C3.30379 9.46653 2.56417 8.23635 2.07433 6.91552C1.77264 6.10943 1.66235 5.48139 1.71101 4.88896C1.74345 4.51019 1.88943 4.19617 2.15867 3.92747L3.26486 2.82354C3.42382 2.67463 3.5925 2.59369 3.75794 2.59369C3.96231 2.59369 4.12775 2.71671 4.23156 2.82031C4.2348 2.82354 4.23805 2.82678 4.24129 2.83002C4.43917 3.01455 4.62732 3.20555 4.8252 3.4095C4.92577 3.5131 5.02957 3.61669 5.13338 3.72352L6.01898 4.60731C6.36284 4.95047 6.36284 5.26773 6.01898 5.61088C5.9249 5.70476 5.83407 5.79865 5.74 5.88929C5.46751 6.1677 5.68156 5.95408 5.39934 6.20659C5.39285 6.21307 5.38636 6.2163 5.38312 6.22278C5.10414 6.50119 5.15604 6.77312 5.21443 6.95765C5.21768 6.96736 5.22092 6.97707 5.22417 6.98679C5.45449 7.5436 5.77888 8.06805 6.27196 8.69285L6.27521 8.69609C7.17054 9.79678 8.11453 10.6547 9.15584 11.3118C9.28884 11.396 9.42508 11.464 9.55484 11.5288C9.67162 11.587 9.78192 11.6421 9.87599 11.7003C9.88897 11.7068 9.90195 11.7165 9.91492 11.723C10.0252 11.778 10.129 11.8039 10.2361 11.8039C10.5053 11.8039 10.674 11.6356 10.7292 11.5805L11.365 10.946C11.4753 10.8359 11.6505 10.7032 11.8548 10.7032C12.056 10.7032 12.2214 10.8294 12.322 10.9395C12.3252 10.9428 12.3252 10.9428 12.3285 10.946L14.1159 12.7298C14.45 13.06 14.1191 13.743 14.1191 13.743Z" stroke="#666666" stroke-width="1.5" stroke-linecap="round" stroke-linejoin="round"/>
</g>
</svg>
