<svg width="41" height="40" viewBox="0 0 41 40" fill="none" xmlns="http://www.w3.org/2000/svg">
<path d="M27.133 12.2345C27.4458 11.9219 27.953 11.9218 28.2658 12.2345C28.5786 12.5473 28.5785 13.0545 28.2658 13.3673L21.633 20.0002L28.2658 26.633C28.5785 26.9458 28.5786 27.453 28.2658 27.7658C27.953 28.0786 27.4458 28.0785 27.133 27.7658L20.5002 21.133L13.8673 27.7658C13.5545 28.0785 13.0473 28.0786 12.7345 27.7658C12.4218 27.453 12.4219 26.9458 12.7345 26.633L19.3673 20.0002L12.7345 13.3673C12.4219 13.0545 12.4218 12.5473 12.7345 12.2345C13.0473 11.9218 13.5545 11.9219 13.8673 12.2345L20.5002 18.8673L27.133 12.2345Z" fill="white"/>
</svg>
