<?xml version="1.0" encoding="utf-8"?>
<!-- Generator: Adobe Illustrator 16.0.0, SVG Export Plug-In . SVG Version: 6.00 Build 0)  -->
<!DOCTYPE svg PUBLIC "-//W3C//DTD SVG 1.1//EN" "http://www.w3.org/Graphics/SVG/1.1/DTD/svg11.dtd">
<svg version="1.1" id="Layer_1" xmlns="http://www.w3.org/2000/svg" xmlns:xlink="http://www.w3.org/1999/xlink" x="0px" y="0px"
	 width="15.417px" height="4.042px" viewBox="0 0 15.417 4.042" enable-background="new 0 0 15.417 4.042" xml:space="preserve">
<g>
	<polygon points="11.343,2.901 11.343,2.698 9.835,2.698 9.835,2.901 10.466,2.901 10.466,3.254 10.703,3.254 10.703,2.901 	"/>
	<polygon points="11.077,2.419 10.348,2.419 10.348,2.083 11.046,2.083 11.046,1.883 10.109,1.883 10.109,2.607 11.077,2.607 	"/>
</g>
<path d="M5.659,1.929V2.13H5.474c0.03,0.034,0.051,0.07,0.069,0.109c0.015,0.04,0.024,0.083,0.024,0.125
	c0,0.109-0.042,0.204-0.123,0.282c-0.083,0.08-0.183,0.118-0.303,0.118c-0.118,0-0.219-0.038-0.3-0.118
	C4.76,2.568,4.718,2.474,4.718,2.364c0-0.042,0.008-0.085,0.024-0.125C4.76,2.2,4.781,2.164,4.809,2.13h-0.19V1.929h0.395v-0.19
	h0.263v0.19H5.659z M5.267,2.214c-0.038-0.039-0.081-0.06-0.126-0.06c-0.044,0-0.084,0.021-0.125,0.06
	C4.978,2.255,4.957,2.303,4.957,2.357c0,0.052,0.021,0.101,0.059,0.141c0.04,0.039,0.081,0.059,0.125,0.059
	c0.046,0,0.088-0.02,0.126-0.059c0.038-0.041,0.058-0.089,0.058-0.141C5.325,2.303,5.305,2.255,5.267,2.214z M5.016,2.873h0.98
	v0.646h-0.25V3.074H5.016V2.873z M6.231,2.229v0.21H5.997v0.364H5.75V1.791h0.247v0.439H6.231z"/>
<path d="M7.367,1.921v0.202H7.21C7.238,2.154,7.26,2.19,7.276,2.229C7.292,2.27,7.3,2.312,7.3,2.356c0,0.083-0.024,0.16-0.075,0.227
	C7.174,2.648,7.109,2.695,7.028,2.72v0.093C7.105,2.808,7.18,2.802,7.249,2.798c0.069-0.007,0.128-0.012,0.172-0.018v0.197
	c-0.074,0.01-0.189,0.02-0.345,0.029C6.921,3.019,6.783,3.024,6.662,3.026L6.366,3.029V2.827h0.23c0.029,0,0.06,0,0.091-0.001
	c0.035,0,0.068,0,0.103-0.001V2.723C6.707,2.7,6.638,2.654,6.586,2.587C6.533,2.521,6.507,2.442,6.507,2.356
	c0-0.044,0.007-0.086,0.022-0.126C6.545,2.19,6.567,2.154,6.595,2.123H6.431V1.921h0.35V1.738h0.255v0.183H7.367z M7.019,2.221
	C6.984,2.184,6.945,2.167,6.904,2.167c-0.044,0-0.083,0.017-0.118,0.054C6.75,2.257,6.734,2.299,6.734,2.35
	c0,0.048,0.016,0.09,0.052,0.127c0.036,0.035,0.074,0.055,0.118,0.055c0.041,0,0.08-0.02,0.115-0.055
	C7.056,2.44,7.073,2.398,7.073,2.35C7.073,2.299,7.056,2.257,7.019,2.221z M7.952,2.437v0.208H7.715v0.621H7.47V1.793h0.245v0.644
	H7.952z"/>
<path d="M9.412,1.904v0.197H9.225c0.023,0.031,0.044,0.066,0.058,0.104c0.014,0.038,0.021,0.076,0.021,0.121
	c0,0.095-0.03,0.179-0.093,0.252C9.148,2.652,9.07,2.7,8.974,2.726v0.145h0.657v0.207H8.084V2.871h0.647V2.723
	c-0.093-0.024-0.17-0.074-0.229-0.146C8.441,2.502,8.411,2.419,8.411,2.326c0-0.044,0.007-0.083,0.021-0.121
	c0.014-0.038,0.032-0.073,0.056-0.104H8.295V1.904h0.428V1.731h0.267v0.173H9.412z M9.003,2.17C8.964,2.13,8.916,2.111,8.855,2.111
	c-0.057,0-0.106,0.019-0.146,0.059c-0.039,0.04-0.06,0.091-0.06,0.152c0,0.06,0.021,0.11,0.06,0.149
	c0.039,0.038,0.089,0.06,0.146,0.06c0.061,0,0.108-0.022,0.147-0.06c0.042-0.039,0.06-0.089,0.06-0.149
	C9.063,2.261,9.045,2.209,9.003,2.17z"/>
<path d="M11.813,2.351h0.244v0.424c0.1-0.007,0.197-0.012,0.291-0.018c0.093-0.009,0.169-0.014,0.225-0.02v0.195
	C12.5,2.944,12.386,2.954,12.23,2.964s-0.295,0.015-0.417,0.018L11.53,2.983V2.782h0.282V2.351z M12.148,2.645
	c0.02-0.067,0.036-0.163,0.049-0.279c0.014-0.116,0.019-0.209,0.018-0.279h-0.548V1.877h0.802c0.003,0.099-0.003,0.227-0.015,0.387
	c-0.015,0.162-0.031,0.286-0.057,0.381H12.148z M13.111,2.381v0.208h-0.235v0.676h-0.245V1.793h0.245v0.588H13.111z"/>
<path d="M13.334,2.094V1.883h0.874v0.211h-0.315c0.004,0.06,0.013,0.12,0.023,0.18c0.013,0.059,0.029,0.11,0.054,0.155
	c0.025,0.05,0.066,0.104,0.125,0.163c0.058,0.06,0.125,0.113,0.202,0.159L14.16,2.916c-0.034-0.017-0.07-0.041-0.104-0.066
	c-0.036-0.024-0.072-0.055-0.103-0.082c-0.037-0.033-0.07-0.067-0.103-0.1c-0.03-0.033-0.058-0.066-0.078-0.095
	c-0.02,0.027-0.042,0.057-0.073,0.091c-0.027,0.034-0.062,0.066-0.096,0.098c-0.038,0.037-0.079,0.071-0.12,0.103
	s-0.076,0.057-0.109,0.074l-0.148-0.163c0.074-0.046,0.143-0.104,0.207-0.168c0.066-0.067,0.113-0.127,0.145-0.188
	c0.024-0.047,0.041-0.1,0.051-0.158s0.014-0.114,0.015-0.167H13.334z M14.833,2.277v0.204h-0.237v0.79h-0.245V1.793h0.245v0.484
	H14.833z"/>
<g>
	<g>
		<g>
			<path fill="#808285" d="M5.238,0.962c0.023,0.035,0.033,0.076,0.029,0.123C5.262,1.142,5.233,1.193,5.183,1.236
				C5.132,1.28,5.062,1.302,4.973,1.302c-0.097,0-0.173-0.03-0.229-0.092S4.662,1.084,4.665,1.018h0.134
				c0,0.043,0.017,0.08,0.05,0.11c0.034,0.03,0.075,0.045,0.123,0.045c0.045,0,0.079-0.008,0.103-0.024
				C5.1,1.132,5.115,1.111,5.121,1.085c0.006-0.023,0.002-0.043-0.011-0.06C5.096,1.008,5.079,0.994,5.057,0.983
				C5.024,0.967,4.99,0.956,4.955,0.95S4.882,0.932,4.843,0.917c-0.05-0.02-0.088-0.047-0.115-0.081
				C4.701,0.802,4.689,0.759,4.692,0.707c0.003-0.048,0.027-0.095,0.071-0.141s0.111-0.068,0.203-0.068
				c0.103,0,0.176,0.031,0.219,0.094c0.043,0.062,0.063,0.117,0.059,0.163H5.11c0-0.034-0.012-0.063-0.035-0.089
				C5.052,0.64,5.017,0.627,4.968,0.627c-0.049,0-0.083,0.009-0.102,0.028c-0.018,0.02-0.028,0.039-0.029,0.06
				C4.835,0.74,4.845,0.759,4.865,0.774S4.908,0.802,4.931,0.81c0.025,0.009,0.058,0.019,0.097,0.027
				c0.04,0.009,0.08,0.023,0.12,0.044C5.185,0.9,5.214,0.927,5.238,0.962z"/>
			<path fill="#808285" d="M5.402,0.656V0.522h0.136v0.134H5.402z M5.402,1.282V0.73h0.134v0.551H5.402z"/>
			<path fill="#808285" d="M6.039,1.278l0.001-0.31c0-0.041-0.008-0.073-0.023-0.095S5.977,0.84,5.943,0.84
				c-0.036,0-0.063,0.012-0.084,0.036c-0.02,0.023-0.03,0.056-0.03,0.098v0.305L5.692,1.278V0.727h0.136L5.83,0.771
				c0.018-0.018,0.042-0.034,0.07-0.047c0.028-0.014,0.063-0.019,0.105-0.014c0.057,0.005,0.1,0.029,0.129,0.071
				c0.029,0.042,0.044,0.083,0.044,0.123v0.376L6.039,1.278z"/>
		</g>
		<g>
			<path fill="#808285" d="M6.686,0.905C6.681,0.892,6.67,0.877,6.652,0.858C6.635,0.841,6.608,0.832,6.573,0.832
				c-0.043,0-0.077,0.017-0.1,0.05C6.45,0.915,6.438,0.955,6.438,1c0,0.046,0.012,0.086,0.035,0.12s0.057,0.05,0.1,0.05
				c0.033,0,0.058-0.009,0.076-0.026c0.018-0.018,0.029-0.035,0.035-0.05l0.146,0.001C6.819,1.144,6.792,1.189,6.748,1.232
				C6.704,1.276,6.645,1.298,6.571,1.298c-0.084,0-0.151-0.029-0.2-0.087C6.322,1.152,6.297,1.083,6.297,1
				c0-0.082,0.025-0.151,0.073-0.209c0.049-0.058,0.116-0.087,0.2-0.087c0.074,0,0.134,0.023,0.18,0.068
				c0.045,0.045,0.073,0.09,0.082,0.134L6.686,0.905z"/>
		</g>
		<g>
			<path fill="#808285" d="M7.07,1.046c0,0.021,0.01,0.048,0.032,0.081c0.021,0.033,0.055,0.05,0.099,0.05
				c0.027,0,0.051-0.006,0.071-0.019c0.02-0.012,0.033-0.023,0.039-0.033h0.142c-0.014,0.038-0.04,0.075-0.079,0.111
				c-0.039,0.037-0.095,0.055-0.17,0.055c-0.08,0-0.145-0.029-0.195-0.086C6.958,1.149,6.933,1.081,6.933,1
				c0-0.082,0.024-0.15,0.074-0.207c0.049-0.057,0.114-0.085,0.197-0.085c0.072,0,0.136,0.027,0.192,0.082
				c0.056,0.054,0.08,0.14,0.072,0.256H7.07z M7.327,0.936c-0.006-0.033-0.019-0.06-0.041-0.081S7.237,0.824,7.202,0.824
				c-0.037,0-0.066,0.011-0.087,0.034C7.092,0.882,7.079,0.907,7.073,0.936H7.327z"/>
			<path fill="#808285" d="M7.746,1.282l0.001-0.51l-0.16-0.001V0.654c0.022,0,0.045-0.003,0.068-0.009
				c0.023-0.006,0.043-0.015,0.061-0.028c0.013-0.01,0.024-0.024,0.035-0.041c0.011-0.018,0.016-0.035,0.016-0.054h0.117v0.76H7.746
				z"/>
			<path fill="#808285" d="M8.493,0.559C8.538,0.6,8.569,0.649,8.588,0.708c0.018,0.054,0.025,0.121,0.023,0.199
				s-0.013,0.145-0.033,0.2C8.556,1.166,8.522,1.213,8.479,1.248S8.383,1.3,8.319,1.3c-0.068,0-0.126-0.023-0.174-0.069
				S8.071,1.134,8.065,1.078H8.19c0.005,0.024,0.018,0.047,0.038,0.069c0.02,0.022,0.048,0.033,0.087,0.033S8.385,1.17,8.404,1.149
				c0.021-0.021,0.035-0.043,0.045-0.068s0.016-0.047,0.018-0.068C8.469,0.992,8.47,0.974,8.468,0.959
				C8.455,0.975,8.434,0.99,8.404,1.004S8.34,1.026,8.3,1.025C8.23,1.024,8.172,0.999,8.126,0.951
				c-0.046-0.048-0.068-0.11-0.064-0.188C8.065,0.689,8.09,0.627,8.137,0.576C8.184,0.524,8.245,0.499,8.32,0.499
				C8.392,0.499,8.449,0.519,8.493,0.559z M8.418,0.861c0.023-0.025,0.035-0.058,0.035-0.099c0-0.04-0.012-0.073-0.035-0.097
				s-0.053-0.037-0.09-0.037c-0.038,0-0.068,0.012-0.092,0.037S8.202,0.722,8.202,0.762c0,0.041,0.011,0.073,0.035,0.099
				C8.26,0.886,8.29,0.898,8.328,0.898C8.365,0.898,8.395,0.886,8.418,0.861z"/>
			<path fill="#808285" d="M9.197,0.955c0.024,0.033,0.036,0.069,0.036,0.11c0,0.065-0.025,0.12-0.076,0.166
				C9.105,1.277,9.043,1.3,8.967,1.3c-0.075,0-0.139-0.023-0.192-0.069C8.722,1.185,8.697,1.124,8.701,1.05h0.136
				C8.834,1.086,8.845,1.116,8.869,1.139c0.024,0.022,0.057,0.034,0.096,0.034s0.069-0.01,0.092-0.031
				C9.08,1.121,9.092,1.095,9.096,1.064C9.097,1.042,9.09,1.02,9.075,0.999C9.062,0.978,9.04,0.964,9.015,0.957
				C8.997,0.952,8.979,0.95,8.96,0.949c-0.019,0-0.034-0.001-0.049-0.001V0.825c0.021,0,0.04-0.001,0.059-0.005
				c0.019-0.003,0.036-0.009,0.051-0.017c0.014-0.008,0.025-0.019,0.035-0.033c0.011-0.013,0.016-0.03,0.018-0.05
				C9.074,0.698,9.066,0.675,9.05,0.653C9.032,0.63,9.005,0.619,8.965,0.619c-0.038,0-0.066,0.011-0.085,0.034
				C8.86,0.675,8.853,0.702,8.854,0.731H8.722c-0.003-0.065,0.02-0.12,0.066-0.165C8.835,0.522,8.894,0.5,8.964,0.5
				c0.072,0,0.132,0.021,0.178,0.065c0.045,0.043,0.067,0.093,0.067,0.15c0,0.047-0.011,0.084-0.033,0.113
				C9.154,0.855,9.133,0.875,9.112,0.884C9.146,0.898,9.175,0.921,9.197,0.955z"/>
			<path fill="#808285" d="M9.789,1.175v0.103H9.65l0.001-0.103H9.316l0.001-0.147l0.336-0.511l0.136,0.001v0.528l0.094-0.001v0.13
				H9.789z M9.651,0.749L9.459,1.046h0.192V0.749z"/>
		</g>
	</g>
</g>
<g>
	<path fill="#D84747" enable-background="new    " d="M0.838,2.745C0.779,2.773,0.732,2.796,0.717,2.803c0,0.027,0,0.053,0,0.092
		c0.037,0,0.205,0,0.398,0L0.838,2.745z"/>
	<path fill="#D84747" enable-background="new    " d="M1.467,2.629l-0.14,0.07v0.133C1.388,2.801,1.49,2.748,1.593,2.694
		C1.549,2.671,1.51,2.651,1.467,2.629z"/>
	<path fill="#D84747" enable-background="new    " d="M1.28,2.351c-0.022,0.01-0.142,0.067-0.264,0.125l0.061,0.03L1.256,2.42
		c0.016-0.007,0.034-0.007,0.05,0L1.47,2.505l0.056-0.028C1.411,2.417,1.301,2.361,1.28,2.351z"/>
	<polygon fill="#D84747" enable-background="new    " points="1.186,1.235 1.411,1.357 1.512,1.303 1.286,1.182 	"/>
	<path fill="#D84747" enable-background="new    " d="M1.611,1.376L1.528,1.421l0.333,0.181c0-0.041,0-0.079,0-0.122
		c-0.004-0.001-0.006,0.005-0.01,0.003L1.616,1.358C1.612,1.364,1.618,1.372,1.611,1.376z"/>
	<path fill="#D84747" enable-background="new    " d="M1.59,2.567l0.124,0.064C1.732,2.622,1.755,2.61,1.77,2.603
		C1.738,2.586,1.694,2.563,1.646,2.539L1.59,2.567z"/>
	<path fill="#D84747" enable-background="new    " d="M1.833,2.895c0-0.034,0-0.051,0-0.078C1.819,2.81,1.772,2.786,1.714,2.756
		L1.447,2.895C1.636,2.895,1.796,2.895,1.833,2.895z"/>
	<path fill="#D84747" enable-background="new    " d="M0.891,2.536C0.85,2.556,0.81,2.575,0.781,2.588
		C0.796,2.596,0.82,2.609,0.839,2.62l0.111-0.053C0.917,2.549,0.894,2.537,0.891,2.536z"/>
	<polygon fill="#D84747" enable-background="new    " points="2.649,1.496 2.788,1.418 2.526,1.294 2.525,1.293 2.375,1.366 	"/>
	<path fill="#D84747" enable-background="new    " d="M2.772,1.554l0.549,0.259c0-0.029,0-0.078,0-0.143L2.911,1.476L2.772,1.554z"
		/>
	<path fill="#D84747" enable-background="new    " d="M2.532,1.562L2.248,1.427L2.21,1.446c0,0.111,0,0.217,0,0.297L2.532,1.562z"/>
	<path fill="#D84747" enable-background="new    " d="M3.097,1.83L2.655,1.621L2.282,1.83C2.451,1.83,2.843,1.83,3.097,1.83z"/>
	<polygon fill="#D84747" enable-background="new    " points="2.654,1.231 2.907,1.352 3.016,1.29 2.774,1.173 	"/>
	<path fill="#D84747" enable-background="new    " d="M3.029,1.409l0.292,0.139c0-0.04,0-0.072,0-0.111L3.138,1.349L3.029,1.409z"/>
	<path fill="#D84747" enable-background="new    " d="M0.96,2.686c0.096,0.052,0.193,0.105,0.256,0.139c0-0.06,0-0.108,0-0.125
		c-0.021-0.01-0.08-0.04-0.141-0.071C1.036,2.649,1.001,2.666,0.96,2.686z"/>
	<path fill="#D84747" enable-background="new    " d="M1.202,2.569l0.07,0.035l0.074-0.037C1.319,2.552,1.287,2.536,1.28,2.532
		C1.271,2.536,1.237,2.552,1.202,2.569z"/>
	<path fill="#D84747" enable-background="new    " d="M2.837,2.567C2.81,2.553,2.777,2.536,2.77,2.532
		c-0.008,0.003-0.043,0.02-0.078,0.037l0.071,0.035L2.837,2.567z"/>
	<path fill="#D84747" enable-background="new    " d="M2.957,2.629L2.818,2.698v0.134c0.06-0.031,0.162-0.084,0.266-0.139
		C3.039,2.671,3,2.651,2.957,2.629z"/>
	<path fill="#D84747" enable-background="new    " d="M3.08,2.567l0.124,0.064C3.223,2.622,3.246,2.61,3.26,2.603
		C3.229,2.586,3.185,2.564,3.137,2.539L3.08,2.567z"/>
	<path fill="#D84747" enable-background="new    " d="M2.708,2.824c0-0.062,0-0.109,0-0.124c-0.021-0.01-0.08-0.04-0.141-0.071
		c-0.04,0.019-0.075,0.036-0.116,0.056C2.547,2.737,2.644,2.79,2.708,2.824z"/>
	<path fill="#D84747" enable-background="new    " d="M3.425,0.434H0.591c-0.104,0-0.187,0.086-0.187,0.188v2.785
		c0,0.104,0.083,0.189,0.187,0.189h2.834c0.104,0,0.188-0.085,0.188-0.189V0.622C3.612,0.52,3.529,0.434,3.425,0.434z M2.909,2.282
		c-0.03,0-0.054-0.025-0.054-0.055V2.089c0-0.029,0.024-0.056,0.054-0.056c0.03,0,0.055,0.026,0.055,0.056c0,0,0,0.043,0,0.082
		c0.025,0,0.074,0,0.118,0V2.089c0-0.029,0.025-0.056,0.054-0.056c0.033,0,0.058,0.026,0.058,0.056v0.082c0.049,0,0.102,0,0.128,0
		c0-0.039,0-0.082,0-0.082c0-0.029,0.025-0.056,0.055-0.056c0.031,0,0.055,0.026,0.055,0.056v0.138c0,0.03-0.024,0.055-0.055,0.055
		H3.194v0.052c0,0.032-0.025,0.056-0.058,0.056c-0.029,0-0.054-0.023-0.054-0.056V2.282H2.909z M2.1,1.191
		c0-0.029,0.026-0.053,0.056-0.053c0.031,0,0.055,0.024,0.055,0.053c0,0,0,0.058,0,0.131c0.115-0.056,0.461-0.223,0.509-0.246V0.97
		H2.155C2.125,0.97,2.1,0.946,2.1,0.915V0.676c0-0.031,0.026-0.055,0.056-0.055h0.393c0.03,0,0.054,0.024,0.054,0.055
		c0,0.029-0.024,0.055-0.054,0.055c0,0-0.255,0-0.338,0c0,0.045,0,0.083,0,0.129c0.045,0,0.272,0,0.509,0V0.681
		c0-0.032,0.024-0.056,0.056-0.056c0.031,0,0.055,0.024,0.055,0.056c0,0,0,0.086,0,0.179c0.228,0,0.442,0,0.486,0
		c0-0.045,0-0.084,0-0.129c-0.083,0-0.337,0-0.337,0c-0.031,0-0.055-0.026-0.055-0.055c0-0.031,0.024-0.055,0.055-0.055h0.393
		c0.03,0,0.055,0.024,0.055,0.055v0.239c0,0.031-0.025,0.055-0.055,0.055H2.829c0,0.048,0,0.089,0,0.106
		c0.044,0.021,0.356,0.172,0.492,0.238c0-0.07,0-0.123,0-0.123c0-0.029,0.024-0.053,0.055-0.053c0.029,0,0.056,0.024,0.056,0.053
		v0.693c0,0.03-0.026,0.056-0.056,0.056H2.155C2.125,1.94,2.1,1.914,2.1,1.884V1.191z M2.158,2.282
		c-0.031,0-0.056-0.025-0.056-0.055V2.089c0-0.029,0.024-0.056,0.056-0.056c0.031,0,0.055,0.026,0.055,0.056c0,0,0,0.043,0,0.082
		c0.027,0,0.081,0,0.13,0V2.089c0-0.029,0.024-0.056,0.056-0.056c0.029,0,0.055,0.026,0.055,0.056v0.082c0.047,0,0.098,0,0.124,0
		c0-0.039,0-0.082,0-0.082c0-0.029,0.024-0.056,0.054-0.056c0.032,0,0.057,0.026,0.057,0.056v0.138c0,0.03-0.024,0.055-0.057,0.055
		H2.454v0.052c0,0.032-0.025,0.056-0.055,0.056c-0.032,0-0.056-0.023-0.056-0.056V2.282H2.158z M1.971,2.216
		c0,0.031-0.024,0.055-0.056,0.055H1.54V2.36l0.374,0.194c0.019,0.008,0.03,0.027,0.03,0.048c0,0.021-0.011,0.041-0.03,0.049
		L1.833,2.694l0.081,0.042c0.019,0.011,0.03,0.026,0.03,0.049V2.95c0,0.016-0.006,0.029-0.015,0.039C1.919,3,1.905,3.006,1.89,3.006
		H1.327v0.058H1.89c0.031,0,0.055,0.026,0.055,0.057v0.206c0,0.029-0.023,0.054-0.055,0.054H1.43c-0.03,0-0.056-0.024-0.056-0.054
		c0-0.031,0.025-0.056,0.056-0.056c0,0,0.32,0,0.405,0c0-0.037,0-0.058,0-0.095c-0.074,0-0.389,0-0.507,0v0.15
		c0,0.029-0.023,0.054-0.056,0.054H0.653c-0.03,0-0.054-0.024-0.054-0.054V3.121c0-0.03,0.024-0.057,0.054-0.057h0.462
		c0.031,0,0.055,0.026,0.055,0.057S1.146,3.176,1.115,3.176c0,0-0.32,0-0.407,0c0,0.037,0,0.058,0,0.095c0.084,0,0.427,0,0.508,0
		c0-0.04,0-0.151,0-0.265H0.661c-0.03,0-0.054-0.024-0.054-0.057V2.768c0-0.021,0.01-0.041,0.03-0.051l0.08-0.039L0.635,2.634
		C0.616,2.625,0.607,2.606,0.607,2.585s0.012-0.039,0.03-0.049l0.394-0.189V2.271H0.657c-0.031,0-0.057-0.024-0.057-0.055V2.082
		c0-0.029,0.025-0.053,0.057-0.053c0.03,0,0.055,0.024,0.055,0.053c0,0,0,0.042,0,0.08c0.065,0,0.244,0,0.318,0v-0.08
		c0-0.029,0.026-0.053,0.056-0.053c0.03,0,0.054,0.024,0.054,0.053v0.212L1.232,2.25V2.082c0-0.029,0.024-0.053,0.054-0.053
		c0.03,0,0.057,0.024,0.057,0.053v0.175L1.43,2.303V2.082c0-0.029,0.024-0.053,0.055-0.053c0.03,0,0.055,0.024,0.055,0.053v0.08
		c0.075,0,0.254,0,0.321,0c0-0.038,0-0.08,0-0.08c0-0.029,0.025-0.053,0.054-0.053c0.032,0,0.056,0.024,0.056,0.053V2.216z
		 M1.943,1.066c0.016,0.01,0.028,0.028,0.028,0.048v0.76c0,0.032-0.024,0.056-0.056,0.056H0.653c-0.03,0-0.054-0.023-0.054-0.056
		v-0.76c0-0.02,0.01-0.039,0.028-0.048c0,0,0.348-0.197,0.398-0.224c0-0.029,0-0.06,0-0.101c-0.086,0-0.404,0-0.404,0
		c-0.033,0-0.056-0.025-0.056-0.057c0-0.03,0.023-0.054,0.056-0.054h0.458c0.03,0,0.056,0.024,0.056,0.054v0.188
		c0,0.021-0.012,0.039-0.029,0.048c0,0-0.349,0.197-0.398,0.226c0,0.02,0,0.113,0,0.218l0.524-0.279V0.662
		c0-0.03,0.024-0.055,0.054-0.055c0.03,0,0.057,0.025,0.057,0.055c0,0,0,0.367,0,0.425C1.387,1.111,1.76,1.309,1.861,1.362
		c0-0.104,0-0.195,0-0.215c-0.05-0.028-0.398-0.226-0.398-0.226C1.447,0.912,1.435,0.895,1.435,0.874V0.686
		c0-0.03,0.024-0.054,0.056-0.054h0.457c0.031,0,0.055,0.024,0.055,0.054c0,0.032-0.024,0.057-0.055,0.057c0,0-0.317,0-0.402,0
		c0,0.041,0,0.071,0,0.101C1.593,0.87,1.943,1.066,1.943,1.066z M3.438,3.327c0,0.029-0.026,0.054-0.056,0.054H2.958
		c-0.032,0-0.056-0.024-0.056-0.054c0-0.031,0.024-0.056,0.056-0.056c0,0,0.286,0,0.368,0c0-0.033,0-0.049,0-0.082
		c-0.082,0-0.368,0-0.368,0c-0.032,0-0.056-0.023-0.056-0.055V3.006H2.818v0.32c0,0.029-0.024,0.054-0.055,0.054
		S2.708,3.356,2.708,3.327c0,0,0-0.16,0-0.32H2.624v0.128c0,0.031-0.024,0.055-0.054,0.055c0,0-0.286,0-0.372,0
		c0,0.033,0,0.049,0,0.082c0.086,0,0.372,0,0.372,0c0.03,0,0.054,0.024,0.054,0.056C2.624,3.356,2.6,3.38,2.57,3.38H2.145
		c-0.031,0-0.056-0.024-0.056-0.054V3.134c0-0.03,0.024-0.056,0.056-0.056c0,0,0.286,0,0.369,0c0-0.024,0-0.051,0-0.072H2.152
		c-0.031,0-0.055-0.024-0.055-0.057V2.768c0-0.021,0.011-0.041,0.031-0.051l0.08-0.039L2.125,2.634
		C2.106,2.625,2.097,2.606,2.097,2.585s0.013-0.039,0.031-0.049l0.591-0.284v-0.17c0-0.029,0.024-0.053,0.056-0.053
		c0.029,0,0.053,0.024,0.053,0.053v0.173l0.577,0.3c0.019,0.008,0.029,0.027,0.029,0.048c0,0.021-0.01,0.041-0.029,0.049
		L3.324,2.694l0.081,0.042c0.019,0.011,0.029,0.026,0.029,0.049L3.436,2.95c0,0.016-0.006,0.029-0.018,0.039
		C3.409,3,3.395,3.006,3.38,3.006h-0.37c0,0.021,0,0.048,0,0.072c0.085,0,0.371,0,0.371,0c0.03,0,0.056,0.025,0.056,0.056V3.327z"/>
	<path fill="#D84747" enable-background="new    " d="M2.382,2.536c-0.042,0.02-0.082,0.039-0.11,0.053
		C2.287,2.596,2.311,2.609,2.33,2.62l0.112-0.054C2.409,2.549,2.385,2.537,2.382,2.536z"/>
	<path fill="#D84747" enable-background="new    " d="M2.329,2.745C2.27,2.773,2.222,2.796,2.208,2.803c0,0.027,0,0.053,0,0.092
		c0.038,0,0.205,0,0.399,0L2.329,2.745z"/>
	<path fill="#D84747" enable-background="new    " d="M1.413,1.483L1.289,1.55l0.488,0.265c0.002,0.001,0,0.004,0.001,0.005
		c0.04,0,0.07,0,0.083,0c0-0.016,0-0.057,0-0.094L1.413,1.483z"/>
	<path fill="#D84747" enable-background="new    " d="M1.173,1.613L0.789,1.82c0.162,0,0.507,0,0.766,0L1.173,1.613z"/>
	<polygon fill="#D84747" enable-background="new    " points="1.172,1.487 1.295,1.42 1.069,1.298 0.945,1.364 	"/>
	<path fill="#D84747" enable-background="new    " d="M1.057,1.549L0.829,1.426L0.721,1.483C0.716,1.486,0.713,1.478,0.708,1.479
		c0,0.102,0,0.191,0,0.259L1.057,1.549z"/>
	<path fill="#D84747" enable-background="new    " d="M2.566,2.506l0.18-0.086c0.016-0.007,0.034-0.007,0.05,0l0.164,0.085
		l0.056-0.028C2.901,2.417,2.791,2.361,2.77,2.351c-0.022,0.01-0.142,0.067-0.264,0.125L2.566,2.506z"/>
	<path fill="#D84747" enable-background="new    " d="M3.323,2.895c0-0.034,0-0.051,0-0.078C3.31,2.81,3.263,2.786,3.205,2.756
		L2.937,2.895C3.125,2.895,3.287,2.895,3.323,2.895z"/>
</g>
</svg>
