<svg width="126" height="24" viewBox="0 0 126 24" fill="none" xmlns="http://www.w3.org/2000/svg">
<g id="_?&#235;&#141;&#137;&#236;&#148;&#160;??1" clip-path="url(#clip0_474_8713)">
<path id="Vector" d="M48.3087 6.93373C48.4849 7.08361 48.6234 7.25863 48.723 7.4568C48.8352 7.66804 48.8919 7.88733 48.8919 8.11668C48.8919 8.71318 48.6559 9.20105 48.186 9.58027C47.7392 9.94743 47.2032 10.1315 46.5749 10.1315C45.954 10.1315 45.417 9.94743 44.9649 9.58027C44.4877 9.19501 44.2485 8.70714 44.2485 8.11668C44.2485 7.88833 44.2957 7.67106 44.3901 7.46686C44.4782 7.27976 44.6104 7.10272 44.7856 6.93373H43.9297V6.02136H45.9823V5.28906H47.1696V6.02136H49.1845V6.93373H48.3087ZM44.5517 10.6546H45.653V12.3797H51.6609V13.3102H45.2009C44.9807 13.3102 44.8212 13.2589 44.7205 13.1563C44.6083 13.0476 44.5517 12.8736 44.5517 12.6322V10.6546ZM45.7191 7.33106C45.4799 7.54733 45.3603 7.80987 45.3603 8.11668C45.3603 8.41744 45.4799 8.67697 45.7191 8.89324C45.9571 9.11051 46.2393 9.21815 46.5665 9.21815C46.8812 9.21815 47.1623 9.11051 47.4151 8.89324C47.6783 8.67093 47.8105 8.41141 47.8105 8.11668C47.8105 7.80987 47.6783 7.54733 47.4151 7.33106C47.1707 7.12585 46.8875 7.02426 46.5665 7.02426C46.2403 7.02426 45.9582 7.12686 45.7191 7.33106ZM51.5948 8.61259V10.8709H50.4924V5.71356H51.5948V7.67407H52.7066V8.61359L51.5948 8.61259Z" fill="#4C4948"/>
<path id="Vector_2" d="M56.2555 5.71338C56.2492 6.40544 56.3877 6.95668 56.6698 7.36709C56.996 7.84893 57.5204 8.14064 58.242 8.24324V9.23708C57.7271 9.21294 57.254 9.09022 56.8208 8.86691C56.3373 8.61442 55.9576 8.25632 55.6807 7.79259C55.4038 8.25028 55.0032 8.6114 54.4756 8.87696C54.0298 9.09927 53.5725 9.21998 53.1016 9.23809V8.2533C53.8232 8.14466 54.3445 7.84993 54.6644 7.3681C54.935 6.96473 55.0734 6.41349 55.0787 5.71439H56.2555V5.71338ZM59.5888 9.71489C60.1405 10.1665 60.4174 10.7389 60.4174 11.431C60.4174 12.123 60.1405 12.6954 59.5888 13.1471C59.0675 13.5685 58.455 13.7788 57.7522 13.7788C57.0495 13.7788 56.4432 13.5685 55.9345 13.1471C55.3891 12.6954 55.1164 12.123 55.1164 11.431C55.1164 10.7389 55.3891 10.1665 55.9345 9.71489C56.4432 9.29341 57.0484 9.08217 57.7522 9.08217C58.456 9.08217 59.0675 9.29341 59.5888 9.71489ZM56.7359 10.4462C56.4212 10.7178 56.2649 11.0457 56.2649 11.431C56.2649 11.8102 56.4212 12.1351 56.7359 12.4067C57.0369 12.6713 57.382 12.804 57.7711 12.804C58.1676 12.804 58.5158 12.6713 58.8168 12.4067C59.1304 12.1351 59.2878 11.8102 59.2878 11.431C59.2878 11.0457 59.1304 10.7178 58.8168 10.4462C58.5158 10.1937 58.1676 10.067 57.7711 10.067C57.382 10.067 57.0369 10.1937 56.7359 10.4462ZM59.6549 6.58047V5.71338H60.7572V9.24513H59.6549V7.50189H58.0627V6.58047H59.6549Z" fill="#4C4948"/>
<path id="Vector_3" d="M66.7541 9.71489V11.9993H70.2006V12.9388H62.2324V11.9993H65.68V9.71489H66.7541ZM62.7222 5.71338H69.6909V9.03791C69.6909 9.29039 69.6311 9.47146 69.5126 9.5801C69.4119 9.67666 69.2514 9.72495 69.0322 9.72495H63.3809C63.1544 9.72495 62.9918 9.67365 62.8911 9.57205C62.7789 9.46341 62.7212 9.28536 62.7212 9.03892V5.71439L62.7222 5.71338ZM68.6085 6.62574H63.8057V8.81158H68.6085V6.62574Z" fill="#4C4948"/>
<path id="Vector_4" d="M73.1 9.33566H71.3945V8.44141H79.3627V9.33566H77.6856V10.0136H76.5937V9.33566H74.1919V10.0136H73.1V9.33566ZM74.6544 7.97165H72.3375C72.1109 7.97165 71.9483 7.92034 71.8476 7.81774C71.7344 7.7091 71.6777 7.52905 71.6777 7.27656V5.71338H79.0806V6.59858H72.7895V7.0955H79.0806V7.97165H74.6544ZM77.9782 10.6635H71.6777V9.77826H79.0806V11.9641H72.7801V12.4158H79.0806V13.3191H72.3375C72.1109 13.3191 71.9483 13.2678 71.8476 13.1652C71.7344 13.0575 71.6777 12.8795 71.6777 12.632V11.097H77.9782V10.6635Z" fill="#4C4948"/>
<path id="Vector_5" d="M84.2205 6.64385H80.8389V5.71338H85.3218V9.02785H81.9402V10.6987H86.1409V11.6291H81.4976C81.2774 11.6291 81.1148 11.5778 81.0078 11.4762C80.8945 11.3676 80.8379 11.1835 80.8379 10.925V8.10644H84.2194V6.64284L84.2205 6.64385ZM87.1395 7.4023V5.71338H88.2418V13.3553H87.1395V8.33277H85.2284V7.4023H87.1395Z" fill="#4C4948"/>
<path id="Vector_6" d="M93.1455 13.3905V10.8978H89.7168V9.95832H97.685V10.8978H94.2384V13.3905H93.1455ZM94.4262 6.6529C94.4451 7.14076 94.7492 7.49585 95.3387 7.71916C95.8034 7.88816 96.4914 7.98674 97.4018 8.01691V8.93833C96.5973 8.91418 95.9334 8.84478 95.4058 8.7301C94.5835 8.55004 94.015 8.25129 93.7014 7.83585C93.3868 8.25129 92.8088 8.54904 91.9687 8.7301C91.4348 8.84478 90.7782 8.91418 90 8.93833V8.01691C90.9041 7.99277 91.5922 7.89319 92.0631 7.71916C92.6526 7.49585 92.9578 7.14076 92.9767 6.6529H90V5.71338H97.4029V6.6529H94.4262Z" fill="#4C4948"/>
<path id="Vector_7" d="M102.093 5.71338C102.093 6.48491 102.224 7.07739 102.488 7.49283C102.802 7.97466 103.32 8.2694 104.042 8.37803V9.35377C103.545 9.32962 103.078 9.19785 102.638 8.95643C102.186 8.69791 101.813 8.35087 101.518 7.91733C101.23 8.35087 100.827 8.69992 100.313 8.96448C99.8482 9.2059 99.393 9.33465 98.9473 9.35276V8.38709C99.6752 8.27241 100.195 7.97165 100.51 7.48378C100.78 7.06834 100.915 6.47787 100.915 5.71338H102.093ZM106.566 13.3553H105.464V11.1061H99.522V10.1756H106.566V13.3553ZM105.464 5.71338H106.566V9.56098H105.464V5.71338Z" fill="#4C4948"/>
<path id="Vector_8" d="M114.624 12.2802H108.041V11.3406H110.189V9.85089H111.262V11.3406H114.624V5.71359H115.726V13.3555H114.624V12.2802ZM112.91 6.9418H112.524C112.693 7.09872 112.825 7.27375 112.919 7.46588C113.026 7.67109 113.079 7.88736 113.079 8.1157C113.079 8.71824 112.837 9.21415 112.354 9.60545C111.902 9.97864 111.36 10.1657 110.725 10.1657C110.085 10.1657 109.531 9.97965 109.068 9.60545C108.583 9.21415 108.343 8.71723 108.343 8.1157C108.343 7.89943 108.39 7.68517 108.484 7.47393C108.572 7.28783 108.701 7.10979 108.87 6.9408H108.164V6.02039H110.132V5.28809H111.319V6.02039H113.267V6.9408L112.91 6.9418ZM109.821 7.29387C109.57 7.51718 109.444 7.79079 109.444 8.1157C109.444 8.43457 109.57 8.70919 109.821 8.93753C110.072 9.16084 110.373 9.27249 110.725 9.27249C111.058 9.27249 111.35 9.16084 111.601 8.93753C111.852 8.70919 111.977 8.43558 111.977 8.1157C111.977 7.79079 111.852 7.51618 111.601 7.29387C111.356 7.0776 111.064 6.96896 110.725 6.96896C110.373 6.96896 110.072 7.0776 109.821 7.29387Z" fill="#4C4948"/>
<path id="Vector_9" d="M120.49 5.71338C120.49 7.41135 120.666 8.65466 121.018 9.44329C121.332 10.1474 121.824 10.5538 122.496 10.6625V11.7458C121.918 11.6804 121.416 11.4782 120.989 11.1403C120.525 10.7731 120.163 10.2581 119.906 9.59619C119.642 10.241 119.256 10.755 118.748 11.1403C118.308 11.4722 117.828 11.6734 117.307 11.7458V10.6715C117.979 10.5508 118.478 10.1414 118.804 9.44329C119.169 8.65466 119.351 7.41035 119.351 5.71338H120.49ZM124.888 9.36282V13.3553H123.785V5.71338H124.888V8.43235H126V9.36282H124.888Z" fill="#4C4948"/>
<path id="Vector_10" d="M52.3604 18.4773C52.1066 18.6332 51.8129 18.7107 51.4783 18.7107C51.234 18.7107 51.0043 18.6624 50.7924 18.5659C50.5795 18.4723 50.3886 18.3365 50.2208 18.1585C50.0813 18.0056 49.9753 17.8346 49.9009 17.6444C49.8306 17.4493 49.7949 17.2441 49.7949 17.0288C49.7949 16.8045 49.8369 16.5943 49.9229 16.3961C50.0089 16.1949 50.1368 16.0139 50.3078 15.8519C50.4704 15.699 50.6487 15.5823 50.8448 15.5029C51.0452 15.4264 51.2591 15.3882 51.4867 15.3882C51.8255 15.3882 52.1244 15.4656 52.3804 15.6216C52.6405 15.7805 52.8398 16.0098 52.9782 16.3096H52.3804C52.2723 16.1678 52.1412 16.0611 51.987 15.9907C51.836 15.9253 51.6661 15.8932 51.4773 15.8932C51.3242 15.8932 51.1794 15.9183 51.0431 15.9696C50.9015 16.0259 50.7809 16.1074 50.6802 16.212C50.5648 16.3197 50.4767 16.4474 50.4138 16.5943C50.354 16.7361 50.3256 16.882 50.3256 17.0318C50.3256 17.1928 50.3529 17.3447 50.4096 17.4865C50.4651 17.6314 50.547 17.7561 50.6529 17.8607C50.7609 17.9683 50.8889 18.0528 51.0336 18.1152C51.1784 18.1776 51.3252 18.2088 51.4762 18.2088C51.6598 18.2088 51.8266 18.1746 51.9766 18.1062C52.1244 18.0388 52.2503 17.9412 52.3531 17.8124H52.973C52.8198 18.1021 52.6143 18.3224 52.3573 18.4753L52.3604 18.4773Z" fill="#4C4948"/>
<path id="Vector_11" d="M55.3223 16.9726C55.1839 17.1376 54.9814 17.2623 54.715 17.3468L55.7209 18.6464H55.0706L54.1266 17.38H54.0028V18.6464H53.4941V15.4517H54.2776C54.4706 15.4517 54.6122 15.4567 54.7077 15.4688C54.8461 15.4889 54.9647 15.5271 55.0622 15.5834C55.2038 15.6569 55.316 15.7685 55.3989 15.9184C55.4838 16.0633 55.5268 16.2212 55.5268 16.3942C55.5268 16.6185 55.4597 16.8106 55.3234 16.9716L55.3223 16.9726ZM54.844 16.0341C54.737 15.9546 54.5724 15.9154 54.3469 15.9154H54.0018V16.9132H54.329C54.5629 16.9132 54.7329 16.875 54.8388 16.7986C54.95 16.7221 55.0066 16.5974 55.0066 16.4244C55.0066 16.2433 54.9521 16.1125 54.843 16.0331L54.844 16.0341Z" fill="#4C4948"/>
<path id="Vector_12" d="M56.041 18.6434V15.4526H57.801V15.9154H56.5592V16.8116H57.801V17.2703H56.5592V18.1626H57.801V18.6424L56.041 18.6434Z" fill="#4C4948"/>
<path id="Vector_13" d="M58.5116 18.6474H57.9609L59.2678 15.4526H59.765L61.0572 18.6474H60.4908L60.1321 17.734H58.8829L58.5116 18.6474ZM59.5122 16.1145L59.0738 17.2452H59.9464L59.5122 16.1145Z" fill="#4C4948"/>
<path id="Vector_14" d="M61.8536 18.6474V15.9194H61.1719V15.4526H63.0284V15.9194H62.3634V18.6474H61.8536Z" fill="#4C4948"/>
<path id="Vector_15" d="M63.4453 18.6474V15.4526H63.9635V18.6474H63.4453Z" fill="#4C4948"/>
<path id="Vector_16" d="M65.5255 18.6474L64.2773 15.4526H64.8228L65.6818 17.7723L66.5366 15.4526H67.0768L65.836 18.6474H65.5255Z" fill="#4C4948"/>
<path id="Vector_17" d="M67.3691 18.6434V15.4526H69.1291V15.9154H67.8873V16.8116H69.1291V17.2703H67.8873V18.1626H69.1291V18.6424L67.3691 18.6434Z" fill="#4C4948"/>
<path id="Vector_18" d="M70.9806 18.6474V15.4526H71.7159L72.6588 17.8527L73.5975 15.4526H74.3233V18.6474H73.8409V16.0683L72.835 18.6474H72.4721L71.4799 16.0813V18.6474H70.9785H70.9806Z" fill="#4C4948"/>
<path id="Vector_19" d="M74.9649 16.3911C75.0541 16.1899 75.1831 16.0108 75.3551 15.8519C75.5146 15.699 75.6908 15.5823 75.8869 15.5029C76.0841 15.4264 76.2981 15.3882 76.5246 15.3882C76.7554 15.3882 76.9704 15.4264 77.1707 15.5029C77.3679 15.5823 77.5504 15.7 77.7151 15.8559C77.8839 16.0149 78.0098 16.1929 78.0958 16.3911C78.185 16.5892 78.229 16.8025 78.229 17.0288C78.229 17.2552 78.1902 17.4654 78.1136 17.6575C78.0402 17.8476 77.9311 18.0186 77.7864 18.1715C77.6123 18.3466 77.4203 18.4803 77.2106 18.5709C76.9955 18.6644 76.7648 18.7117 76.5194 18.7117C76.2718 18.7117 76.0411 18.6634 75.8292 18.5669C75.6194 18.4733 75.4296 18.3375 75.2618 18.1595C75.1223 18.0066 75.0174 17.8356 74.9419 17.6454C74.8716 17.4503 74.8359 17.2451 74.8359 17.0298C74.8359 16.8055 74.8779 16.5933 74.9639 16.3921L74.9649 16.3911ZM75.4474 17.4875C75.5041 17.6324 75.5859 17.7571 75.6908 17.8617C75.803 17.9693 75.931 18.0538 76.0767 18.1162C76.2215 18.1786 76.3683 18.2098 76.5194 18.2098C76.8529 18.2098 77.134 18.0961 77.3616 17.8698C77.5892 17.6434 77.7025 17.3618 77.7025 17.0238C77.7025 16.882 77.6752 16.7462 77.6186 16.6164C77.5619 16.4836 77.4812 16.3639 77.3752 16.2593C77.2546 16.1326 77.1246 16.038 76.9851 15.9787C76.8466 15.9223 76.6924 15.8942 76.5204 15.8942C76.3673 15.8942 76.2225 15.9193 76.0862 15.9706C75.9477 16.0249 75.825 16.1054 75.7191 16.213C75.6048 16.3207 75.5177 16.4484 75.4579 16.5953C75.3981 16.7371 75.3698 16.883 75.3698 17.0328C75.3698 17.1938 75.395 17.3457 75.4474 17.4875Z" fill="#4C4948"/>
<path id="Vector_20" d="M78.7315 18.6474V15.4526H79.8129C80.309 15.4526 80.7118 15.6015 81.0212 15.8983C81.3285 16.195 81.4816 16.5823 81.4816 17.0581C81.4816 17.3307 81.4229 17.5781 81.3044 17.8014C81.1869 18.0227 81.0212 18.2078 80.8083 18.3587C80.6373 18.4744 80.4569 18.5539 80.2671 18.5961C80.1139 18.6303 79.9157 18.6474 79.6744 18.6474H78.7315ZM79.7951 18.1797C80.1559 18.1797 80.4401 18.0791 80.6499 17.8779C80.8565 17.6767 80.9604 17.4061 80.9604 17.0661C80.9604 16.706 80.8513 16.4254 80.6331 16.2252C80.4149 16.024 80.1045 15.9234 79.7028 15.9234H79.2329V18.1797H79.7951Z" fill="#4C4948"/>
<path id="Vector_21" d="M82.5046 15.4526V17.4795C82.5046 17.7431 82.5413 17.9282 82.6147 18.0358C82.7007 18.1575 82.8528 18.2189 83.072 18.2189C83.2755 18.2189 83.4171 18.1585 83.4968 18.0358C83.5703 17.9282 83.607 17.7431 83.607 17.4795V15.4526H84.1251V17.4705C84.1251 17.6576 84.1146 17.8065 84.0947 17.9161C84.0685 18.0549 84.0223 18.1736 83.9573 18.2732C83.8503 18.4171 83.7307 18.5257 83.5975 18.5961C83.4622 18.6695 83.2996 18.7068 83.1109 18.7068C82.8979 18.7068 82.7133 18.6715 82.5571 18.6011C82.3945 18.5307 82.2602 18.4211 82.1532 18.2742C82.0767 18.1666 82.0263 18.0408 82.0022 17.896C81.9907 17.8085 81.9844 17.6656 81.9844 17.4715V15.4536H82.5025L82.5046 15.4526Z" fill="#4C4948"/>
<path id="Vector_22" d="M84.7354 18.6434V15.4526H85.2536V18.1636H86.3255V18.6434H84.7354Z" fill="#4C4948"/>
<path id="Vector_23" d="M86.7617 18.6434V15.4526H88.5207V15.9154H87.2799V16.8116H88.5207V17.2703H87.2799V18.1626H88.5207V18.6424L86.7617 18.6434Z" fill="#4C4948"/>
<path id="Vector_24" d="M90.6286 18.6474H90.0801L91.387 15.4526H91.8831L93.1763 18.6474H92.6099L92.2502 17.734H91.001L90.6286 18.6474ZM91.6303 16.1145L91.1908 17.2452H92.0645L91.6303 16.1145Z" fill="#4C4948"/>
<path id="Vector_25" d="M95.3223 16.9726C95.1839 17.1376 94.9814 17.2623 94.7161 17.3468L95.7219 18.6464H95.0706L94.1266 17.38H94.0028V18.6464H93.4941V15.4517H94.2776C94.4706 15.4517 94.6133 15.4567 94.7077 15.4688C94.8472 15.4889 94.9647 15.5271 95.0622 15.5834C95.2038 15.6569 95.316 15.7685 95.3989 15.9184C95.4838 16.0633 95.5268 16.2212 95.5268 16.3942C95.5268 16.6185 95.4597 16.8106 95.3234 16.9716L95.3223 16.9726ZM94.844 16.0341C94.7381 15.9546 94.5724 15.9154 94.3479 15.9154H94.0018V16.9132H94.329C94.5629 16.9132 94.7328 16.875 94.8388 16.7986C94.95 16.7221 95.0066 16.5974 95.0066 16.4244C95.0066 16.2433 94.9521 16.1125 94.843 16.0331L94.844 16.0341Z" fill="#4C4948"/>
<path id="Vector_26" d="M98.5089 18.4773C98.2551 18.6332 97.9614 18.7107 97.6268 18.7107C97.3824 18.7107 97.1527 18.6624 96.9408 18.5659C96.7279 18.4723 96.537 18.3365 96.3692 18.1585C96.2297 18.0056 96.1238 17.8346 96.0493 17.6444C95.979 17.4493 95.9434 17.2441 95.9434 17.0288C95.9434 16.8045 95.9853 16.5943 96.0713 16.3961C96.1573 16.1949 96.2853 16.0139 96.4563 15.8519C96.6188 15.699 96.7971 15.5823 96.9933 15.5029C97.1936 15.4264 97.4076 15.3882 97.6352 15.3882C97.975 15.3882 98.2729 15.4656 98.5299 15.6216C98.7889 15.7805 98.9882 16.0098 99.1267 16.3096H98.5299C98.4208 16.1678 98.2897 16.0611 98.1355 15.9907C97.9834 15.9253 97.8145 15.8932 97.6257 15.8932C97.4726 15.8932 97.3279 15.9183 97.1915 15.9696C97.0499 16.0259 96.9293 16.1074 96.8286 16.212C96.7132 16.3197 96.6251 16.4474 96.5622 16.5943C96.5024 16.7361 96.4741 16.882 96.4741 17.0318C96.4741 17.1928 96.5014 17.3447 96.558 17.4865C96.6146 17.6314 96.6954 17.7561 96.8013 17.8607C96.9094 17.9683 97.0373 18.0528 97.1821 18.1152C97.3268 18.1776 97.4737 18.2088 97.6247 18.2088C97.8082 18.2088 97.975 18.1746 98.126 18.1062C98.2739 18.0388 98.3998 17.9412 98.5026 17.8124H99.1225C98.9693 18.1021 98.7638 18.3224 98.5068 18.4753L98.5089 18.4773Z" fill="#4C4948"/>
<path id="Vector_27" d="M99.6406 18.6474V15.4526H100.159V16.7311H101.46V15.4526H101.97V18.6474H101.46V17.224H100.159V18.6474H99.6406Z" fill="#4C4948"/>
<path id="Vector_28" d="M102.58 18.6474V15.4526H103.098V18.6474H102.58Z" fill="#4C4948"/>
<path id="Vector_29" d="M104.18 18.6474V15.9194H103.498V15.4526H105.353V15.9194H104.69V18.6474H104.18Z" fill="#4C4948"/>
<path id="Vector_30" d="M105.773 18.6434V15.4526H107.532V15.9154H106.292V16.8116H107.532V17.2703H106.292V18.1626H107.532V18.6424L105.773 18.6434Z" fill="#4C4948"/>
<path id="Vector_31" d="M110.454 18.4773C110.2 18.6332 109.907 18.7107 109.572 18.7107C109.328 18.7107 109.099 18.6624 108.886 18.5659C108.673 18.4723 108.482 18.3365 108.315 18.1585C108.175 18.0056 108.07 17.8346 107.996 17.6444C107.924 17.4493 107.889 17.2441 107.889 17.0288C107.889 16.8045 107.932 16.5943 108.017 16.3961C108.103 16.1949 108.231 16.0139 108.402 15.8519C108.564 15.699 108.742 15.5823 108.939 15.5029C109.139 15.4264 109.353 15.3882 109.58 15.3882C109.92 15.3882 110.218 15.4656 110.475 15.6216C110.734 15.7805 110.934 16.0098 111.073 16.3096H110.475C110.366 16.1678 110.235 16.0611 110.081 15.9907C109.931 15.9253 109.76 15.8932 109.571 15.8932C109.418 15.8932 109.273 15.9183 109.137 15.9696C108.995 16.0259 108.875 16.1074 108.774 16.212C108.659 16.3197 108.57 16.4474 108.508 16.5943C108.449 16.7361 108.419 16.882 108.419 17.0318C108.419 17.1928 108.447 17.3447 108.503 17.4865C108.56 17.6314 108.641 17.7561 108.747 17.8607C108.857 17.9683 108.984 18.0528 109.127 18.1152C109.272 18.1776 109.419 18.2088 109.57 18.2088C109.754 18.2088 109.92 18.1746 110.071 18.1062C110.219 18.0388 110.345 17.9412 110.448 17.8124H111.068C110.915 18.1021 110.709 18.3224 110.452 18.4753L110.454 18.4773Z" fill="#4C4948"/>
<path id="Vector_32" d="M112.065 18.6474V15.9194H111.383V15.4526H113.238V15.9194H112.573V18.6474H112.065Z" fill="#4C4948"/>
<path id="Vector_33" d="M114.173 15.4526V17.4795C114.173 17.7431 114.211 17.9282 114.285 18.0358C114.37 18.1575 114.522 18.2189 114.74 18.2189C114.943 18.2189 115.086 18.1585 115.165 18.0358C115.239 17.9282 115.276 17.7431 115.276 17.4795V15.4526H115.794V17.4705C115.794 17.6576 115.783 17.8065 115.763 17.9161C115.737 18.0549 115.691 18.1736 115.625 18.2732C115.519 18.4171 115.4 18.5257 115.266 18.5961C115.13 18.6695 114.969 18.7068 114.779 18.7068C114.567 18.7068 114.381 18.6715 114.225 18.6011C114.063 18.5307 113.929 18.4211 113.822 18.2742C113.746 18.1666 113.695 18.0408 113.672 17.896C113.66 17.8085 113.654 17.6656 113.654 17.4715V15.4536H114.171L114.173 15.4526Z" fill="#4C4948"/>
<path id="Vector_34" d="M118.234 16.9726C118.096 17.1376 117.894 17.2623 117.628 17.3468L118.634 18.6464H117.983L117.04 17.38H116.915V18.6464H116.406V15.4517H117.191C117.383 15.4517 117.525 15.4567 117.62 15.4688C117.759 15.4889 117.877 15.5271 117.974 15.5834C118.117 15.6569 118.228 15.7685 118.311 15.9184C118.396 16.0633 118.439 16.2212 118.439 16.3942C118.439 16.6185 118.372 16.8106 118.235 16.9716L118.234 16.9726ZM117.756 16.0341C117.65 15.9546 117.484 15.9154 117.26 15.9154H116.914V16.9132H117.241C117.475 16.9132 117.645 16.875 117.751 16.7986C117.862 16.7221 117.919 16.5974 117.919 16.4244C117.919 16.2433 117.864 16.1125 117.755 16.0331L117.756 16.0341Z" fill="#4C4948"/>
<path id="Vector_35" d="M118.953 18.6434V15.4526H120.712V15.9154H119.471V16.8116H120.712V17.2703H119.471V18.1626H120.712V18.6424L118.953 18.6434Z" fill="#4C4948"/>
<path id="Vector_36" d="M34.9738 1.4102V0.209141H34.6738V0.00292969H35.4909V0.209141H35.1993V1.4102H34.9738Z" fill="#4C4948"/>
<path id="Vector_37" d="M35.6758 1.4102V0.00292969H35.9999L36.4152 1.06014L36.8285 0.00292969H37.1484V1.4102H36.9355V0.273519L36.4928 1.40919H36.3334L35.896 0.279555V1.40919L35.6758 1.4102Z" fill="#4C4948"/>
<path id="Vector_38" d="M17.4657 17.013H11.4305L8.41399 12.0005L15.6375 0H7.22457L0 12.0005L7.22457 24H17.4657H21.6727L28.8972 12.0005L26.7943 8.50698H22.5873L17.4657 17.013Z" fill="#4C4948"/>
<path id="Vector_39" d="M21.5282 6.98806H27.5633L30.5799 12.0005L23.3563 24H31.7693L38.9939 12.0005L31.7693 0H21.5282H17.3222L10.0977 12.0005L12.2006 15.494H16.4076L21.5282 6.98806Z" fill="#F6A700"/>
</g>
<defs>
<clipPath id="clip0_474_8713">
<rect width="126" height="24" fill="white"/>
</clipPath>
</defs>
</svg>
