<svg width="270" height="38" viewBox="0 0 270 38" fill="none" xmlns="http://www.w3.org/2000/svg">
<g clip-path="url(#clip0_364_1009)">
<path d="M256.399 12.4416H248.918V15.1325H251.298V18.4936H254.019V15.1325H256.399V12.4416ZM171.385 27.2365H164.582V37.995H167.303V29.9224H168.663V37.995H171.385V32.6133C171.385 32.2409 171.691 31.943 172.062 31.943C172.434 31.943 172.745 32.2459 172.745 32.6133V37.995H175.466V32.6133C175.466 30.7565 173.945 29.2522 172.067 29.2522C171.836 29.2522 171.605 29.277 171.39 29.3217V27.2365H171.385ZM171.048 14.7949H164.587V17.317H168.327V20.8469H171.048V14.7949ZM145.543 34.6339C145.543 35.0063 145.237 35.3042 144.866 35.3042H141.467V37.995H144.866C146.743 37.995 148.265 36.4907 148.265 34.6339C148.265 32.7771 146.743 31.2728 144.866 31.2728C144.489 31.2728 144.183 30.9699 144.183 30.5976C144.183 30.2252 144.489 29.9274 144.866 29.9274H148.265V27.2365H144.866C142.988 27.2365 141.467 28.7408 141.467 30.5976C141.467 32.4544 142.988 33.9587 144.866 33.9587C145.242 33.9587 145.543 34.2616 145.543 34.629M22.4423 25.2208H12.9231V21.1845C12.9231 18.583 15.0569 16.4779 17.6827 16.4779C20.3085 16.4779 22.4423 18.5879 22.4423 21.1845V25.2208ZM27.8846 30.6026H35.3654V3.02848H29.923V25.2208H27.8846V21.1845C27.8846 15.6141 23.3159 11.0962 17.6827 11.0962C12.0495 11.0962 7.48075 15.6141 7.48075 21.1845V30.5976H22.4423V32.6133H5.44237V3.02848H0V38H27.8846V30.6026ZM44.8845 8.40528H69.3702V32.6182H67.3318V10.4259H44.8895V8.41024L44.8845 8.40528ZM44.8845 15.8027H61.8894V32.6182H44.8845V15.8027ZM39.4472 38H74.8126V3.02848H39.4472V38ZM101.337 38H114.26V32.6182H106.779V25.2208H99.2982V23.2051H106.779V15.8077H114.26V3.02848H78.8943V8.41024H108.817V10.4259H101.337V17.8234H93.8558V25.2208H86.3751V32.6182H78.8943V38H91.8175V30.6026H101.337V38ZM121.058 13.787H127.861V11.0962H123.779V9.75072H124.462C126.339 9.75072 127.861 8.24641 127.861 6.3896C127.861 4.53279 126.339 3.02848 124.462 3.02848H121.063V5.71936H124.462C124.838 5.71936 125.139 6.02221 125.139 6.3896C125.139 6.75699 124.833 7.05984 124.462 7.05984H121.063V13.787H121.058ZM128.538 29.2571C128.307 29.2571 128.077 29.2819 127.861 29.3266V27.2414H121.058V38H123.779V29.9274H125.139V38H127.861V32.6182C127.861 32.2459 128.167 31.948 128.538 31.948C128.91 31.948 129.216 32.2508 129.216 32.6182V38H131.937V32.6182C131.937 30.7614 130.416 29.2571 128.538 29.2571ZM134.659 10.4259C134.659 11.1706 134.051 11.7714 133.298 11.7714C132.545 11.7714 131.937 11.1706 131.937 10.4259C131.937 9.68121 132.545 9.08048 133.298 9.08048C134.051 9.08048 134.659 9.68121 134.659 10.4259ZM137.38 10.4259C137.38 8.19676 135.552 6.3896 133.298 6.3896C131.044 6.3896 129.216 8.19676 129.216 10.4259C129.216 12.6551 131.044 14.4622 133.298 14.4622C135.552 14.4622 137.38 12.6551 137.38 10.4259ZM137.38 27.2365V34.6339C137.38 35.0063 137.074 35.3042 136.702 35.3042C136.33 35.3042 136.024 35.0013 136.024 34.6339V27.2365H133.303V34.6339C133.303 36.4907 134.824 37.995 136.702 37.995C138.58 37.995 140.101 36.4907 140.101 34.6339V27.2365H137.38ZM138.74 13.787H145.543V11.0962H141.462V9.75072H142.139C144.017 9.75072 145.538 8.24641 145.538 6.3896C145.538 4.53279 144.017 3.02848 142.139 3.02848H138.74V5.71936H142.139C142.516 5.71936 142.817 6.02221 142.817 6.3896C142.817 6.75699 142.511 7.05984 142.139 7.05984H138.74V13.787ZM149.625 38H155.067V35.3091H152.346V33.9637H155.067V31.2728H152.346V29.9274H155.067V27.2365H149.625V37.995V38ZM160.505 34.6339C160.505 35.0063 160.199 35.3042 159.827 35.3042C159.456 35.3042 159.149 35.0013 159.149 34.6339V27.2365H156.428V34.6339C156.428 36.4907 157.949 37.995 159.827 37.995C161.705 37.995 163.226 36.4907 163.226 34.6339V27.2365H160.505V34.6339ZM163.226 9.75072H164.587V11.265H163.226V9.75072ZM160.505 13.787H167.308V3.02848H164.587V7.2336H163.226V3.02848H160.505V13.787ZM171.048 7.56624H172.409V5.04416H171.048V3.02848H168.327V13.787H171.048V7.56624ZM177.51 2.52208H178.87V4.03632H177.51V2.52208ZM174.789 6.5584H181.592V0H174.789V6.5584ZM178.865 10.2571H182.947V7.56624H173.428V10.2571H176.149V11.265H174.789V13.787H178.87V14.7949H174.789V20.8469H181.592V18.3248H177.51V17.317H181.592V11.265H178.87V10.2571H178.865ZM184.308 35.3091H182.947V27.2365H180.226V37.995H187.029V30.5976C187.029 30.2252 187.335 29.9274 187.707 29.9274C188.078 29.9274 188.384 30.2302 188.384 30.5976V37.995H195.187V27.2365H192.466V35.3091H191.106V30.6026C191.106 28.7458 189.584 27.2414 187.707 27.2414C185.829 27.2414 184.308 28.7458 184.308 30.6026V35.3091ZM189.067 10.2571H191.788V3.02848H185.327V5.55056H189.067V10.2571ZM183.966 13.787H191.788V11.265H188.048V6.5584H185.327V11.265H183.966V13.787ZM195.529 18.161H191.788V14.7998H189.067V20.8518H195.529V18.161ZM195.529 7.56624H196.889V5.04416H195.529V3.02848H192.808V14.1246H195.529V7.56624ZM201.99 27.2365H196.548V37.995H201.99V35.3042H199.269V33.9587H201.99V31.2678H199.269V29.9224H201.99V27.2315V27.2365ZM199.611 9.75072H202.332V7.05984H199.611V9.75072ZM208.793 27.2365H203.351V37.995H208.793V35.3042H206.072V33.9587H208.793V31.2678H206.072V29.9224H208.793V27.2315V27.2365ZM209.135 5.55056H210.495V11.265H209.135V5.55056ZM206.414 13.787H213.217V3.02848H206.414V13.787ZM214.231 13.787H216.952V3.02848H214.231V13.787ZM220.978 27.2365H217.133L212.875 31.3125V27.2365H210.154V37.995H212.875V33.9041L217.188 37.995H221.034L215.365 32.6083L220.978 27.2315V27.2365ZM226.592 6.27541L228.514 4.37392L224.096 0.00496472L219.678 4.37392L221.601 6.27541L224.096 3.80794L226.592 6.27541ZM224.774 10.2571H228.856V7.56624H219.337V10.2571H222.058V11.265H220.697V13.787H224.779V14.7949H220.697V20.8469H227.5V18.3248H223.418V17.317H227.5V11.265H224.779V10.2571H224.774ZM234.976 10.2571H237.697V3.02848H231.236V5.55056H234.976V10.2571ZM229.875 13.787H237.697V11.265H233.957V6.5584H231.236V11.265H229.875V13.787ZM241.438 18.161H237.697V14.7998H234.976V20.8518H241.438V18.161ZM241.438 7.56624H242.798V5.04416H241.438V3.02848H238.716V14.1246H241.438V7.56624ZM257.082 9.19467L253.562 5.7144H256.399V3.02352H248.918V5.7144H251.755L248.235 9.19467L250.158 11.0962L252.654 8.62869L255.149 11.0962L257.072 9.19467H257.082ZM262.183 11.0962H264.904V3.02848H258.784V5.71936H262.183V11.1011V11.0962ZM268.639 15.8027H264.899V12.4416H262.178V18.4936H268.639V15.8027ZM270 7.56624V5.04416H268.639V3.02848H265.918V11.1011H268.639V7.5712H270V7.56624Z" fill="#040000"/>
<path d="M146.607 12.7747L147.868 11.052C148.52 11.6676 149.329 12.1442 150.247 12.1442C151.367 12.1442 152.065 11.5931 152.065 10.5158C152.065 9.43843 151.367 8.87246 150.373 8.87246C149.735 8.87246 149.424 9.01147 148.741 9.4434L147.526 8.65897L147.822 2.98926H154.319V5.278H150.202L150.031 7.21424C150.453 7.04544 150.795 6.98586 151.226 6.98586C153.184 6.98586 154.831 8.0781 154.831 10.4463C154.831 12.8144 152.873 14.3684 150.649 14.3684C148.801 14.3684 147.526 13.6783 146.607 12.7847V12.7747Z" fill="#040000"/>
<path d="M147.526 8.65409V2.98438H147.822L147.526 8.65409Z" fill="#040000"/>
<path d="M150.026 7.20887V5.2627H154.47L150.026 7.20887Z" fill="white"/>
<path d="M150.458 4.22559H147.672V7.78529H150.458V4.22559Z" fill="#040000"/>
<path d="M154.314 2.98438H150.388V5.67526H154.314V2.98438Z" fill="#040000"/>
</g>
<defs>
<clipPath id="clip0_364_1009">
<rect width="270" height="38" fill="white"/>
</clipPath>
</defs>
</svg>
