<svg width="146" height="35" viewBox="0 0 146 35" fill="none" xmlns="http://www.w3.org/2000/svg">
<g id="logo" clip-path="url(#clip0_39_1409)">
<path id="Vector" d="M48.0454 24.2457C47.5077 23.0197 47.2401 21.6749 47.2401 20.2114C47.2401 18.7479 47.509 17.4045 48.0454 16.1771C48.5817 14.9511 49.3445 13.8038 50.3311 12.7378H53.2742C52.2876 13.7715 51.512 14.9214 50.9473 16.1862C50.3826 17.4509 50.1009 18.7931 50.1009 20.2114C50.1009 21.6298 50.3826 22.9719 50.9473 24.2367C51.512 25.5014 52.2876 26.6513 53.2742 27.6851H50.3311C49.3445 26.6178 48.583 25.4718 48.0454 24.2457Z" fill="#554D4B"/>
<path id="Vector_2" d="M68.5172 24.4354H62.8278V27.6025H59.9992V24.4354H54.3098V21.862H68.5172V24.4354ZM61.2662 18.5285C60.4764 19.2435 59.5206 19.8049 58.3964 20.2114C57.2721 20.6179 56.0862 20.827 54.8359 20.8386V18.2975C55.9434 18.2756 56.9673 18.0471 57.9115 17.6122C58.8543 17.1773 59.5284 16.5978 59.9335 15.8713H55.0828V13.3469H67.7441V15.8713H63.0079C62.9641 16.0248 62.8934 16.2171 62.7943 16.4481L68.3191 18.544L67.2669 20.8541L61.2649 18.5285H61.2662Z" fill="#554D4B"/>
<path id="Vector_3" d="M69.5527 27.6851C70.5393 26.6513 71.3149 25.5014 71.8796 24.2367C72.4443 22.9719 72.726 21.6298 72.726 20.2114C72.726 18.7931 72.4443 17.4509 71.8796 16.1862C71.3149 14.9214 70.5393 13.7715 69.5527 12.7378H72.4958C73.4824 13.8051 74.2439 14.9511 74.7816 16.1771C75.318 17.4032 75.5868 18.7479 75.5868 20.2114C75.5868 21.6749 75.318 23.0184 74.7816 24.2457C74.2439 25.4718 73.4824 26.6191 72.4958 27.6851H69.5527Z" fill="#554D4B"/>
<path id="Vector_4" d="M81.2453 23.4946L80.0773 24.8149V27.0424H77.1509V13.1843H80.0773V21.3174L83.4809 17.3748H86.7366L83.0371 21.4994L86.9347 27.0424H83.5967L81.2453 23.4946Z" fill="#554D4B"/>
<path id="Vector_5" d="M90.8644 13.2166C91.204 13.5573 91.3738 13.9871 91.3738 14.5033C91.3738 15.0195 91.204 15.4493 90.8644 15.79C90.5248 16.1307 90.0965 16.3011 89.5819 16.3011C89.0674 16.3011 88.6391 16.1307 88.2995 15.79C87.9599 15.4493 87.7901 15.0208 87.7901 14.5033C87.7901 13.9858 87.9599 13.5573 88.2995 13.2166C88.6391 12.8759 89.0661 12.7056 89.5819 12.7056C90.0978 12.7056 90.5248 12.8759 90.8644 13.2166ZM91.0458 27.0747H88.1194V17.3735H91.0458V27.0747Z" fill="#554D4B"/>
<path id="Vector_6" d="M93.2493 17.3736H96.1769V18.3634C96.7789 17.5491 97.6781 17.1426 98.8731 17.1426C99.6191 17.1426 100.276 17.3155 100.846 17.6627C101.416 18.0098 101.857 18.5067 102.17 19.1559C102.482 19.805 102.638 20.569 102.638 21.4492V27.0425H99.7117V21.9448C99.7117 21.2078 99.5664 20.6439 99.2757 20.2541C98.985 19.8644 98.5656 19.6682 98.0177 19.6682C97.4478 19.6682 96.9976 19.8824 96.6696 20.3122C96.3403 20.7407 96.1769 21.3292 96.1769 22.0777V27.0438H93.2493V17.3762V17.3736Z" fill="#554D4B"/>
<path id="Vector_7" d="M107.135 30.829C106.461 30.5154 105.926 30.0946 105.532 29.5668C105.137 29.039 104.885 28.4505 104.776 27.8013H107.736C107.9 28.4827 108.497 28.8247 109.528 28.8247C110.141 28.8247 110.635 28.6428 111.007 28.2801C111.38 27.9175 111.566 27.4335 111.566 26.8282V25.8048C110.963 26.6192 110.042 27.0257 108.803 27.0257C107.894 27.0257 107.082 26.8166 106.37 26.3985C105.657 25.9803 105.104 25.3983 104.709 24.6498C104.314 23.9025 104.117 23.0611 104.117 22.1254C104.117 21.1691 104.314 20.3135 104.709 19.5598C105.104 18.8061 105.657 18.215 106.37 17.7866C107.082 17.3581 107.893 17.1426 108.803 17.1426C110.042 17.1426 110.963 17.5491 111.566 18.3634V17.3736H114.494V26.8605C114.494 27.7187 114.281 28.4853 113.852 29.1616C113.425 29.8378 112.835 30.3631 112.085 30.7373C111.334 31.1116 110.482 31.2987 109.528 31.2987C108.607 31.2987 107.809 31.1426 107.135 30.829ZM110.975 23.9077C111.402 23.4457 111.617 22.852 111.617 22.1254C111.617 21.3988 111.403 20.8052 110.975 20.3432C110.548 19.8811 109.977 19.6501 109.265 19.6501C108.574 19.6501 108.021 19.8811 107.605 20.3432C107.188 20.8052 106.979 21.3988 106.979 22.1254C106.979 22.852 107.188 23.4457 107.605 23.9077C108.021 24.3697 108.574 24.6007 109.265 24.6007C109.978 24.6007 110.548 24.3697 110.975 23.9077Z" fill="#554D4B"/>
<path id="Vector_8" d="M122.404 18.6448L126.481 25.1118L124.097 26.5972L121.449 22.1422C120.879 23.5721 120.162 24.6717 119.295 25.4421C118.429 26.2113 117.464 26.6024 116.4 26.614V23.7102C117.113 23.6341 117.738 23.1527 118.275 22.2661C118.811 21.3807 119.228 20.1792 119.525 18.6615C119.821 17.1438 119.969 15.4119 119.969 13.4644L122.797 13.5638C122.797 15.4338 122.667 17.1271 122.404 18.6448ZM130.05 13.1831V27.2722H127.271V20.3431H124.311V17.7362H127.271V13.1831H130.05Z" fill="#554D4B"/>
<path id="Vector_9" d="M135.279 20.9793C134.445 21.4362 133.536 21.6749 132.549 21.6969V19.1725C133.163 19.1286 133.71 18.9415 134.193 18.6111C134.675 18.2807 135.061 17.8626 135.352 17.3567C135.643 16.8508 135.832 16.3062 135.919 15.7229H132.746V13.3469H141.822V15.7229H138.731C138.699 16.1074 138.622 16.5204 138.501 16.9605L142.415 19.5842L140.886 21.5807L137.383 19.1558C136.813 19.9146 136.111 20.5225 135.279 20.9793ZM146 24.7658V27.2734H133.24V22.3409H136.068V24.7658H146ZM145.803 23.6108H143.025V13.1843H145.803V23.6108Z" fill="#554D4B"/>
<path id="Vector_10" d="M47.2388 7.85303L48.5007 7.83238V7.14968H48.9381V7.82206L50.1125 7.80141V8.15244L47.2375 8.20406L47.2388 7.85303ZM48.264 6.29662C48.3708 6.2037 48.4364 6.13271 48.4621 6.08238C48.4879 6.03205 48.5007 5.96494 48.5007 5.87847V5.68231H47.4601V5.32095H48.5162V4.80473H48.9226V5.32095H49.9787V5.68231H48.9381V5.87847C48.9381 5.97139 48.9509 6.04496 48.9767 6.09787C49.0024 6.15078 49.0654 6.21789 49.1645 6.29662L50.061 7.0103L49.8141 7.32003L48.9175 6.60635C48.839 6.5444 48.7696 6.47858 48.7117 6.41018C48.6808 6.45148 48.6178 6.5173 48.5213 6.60635L47.6196 7.32003L47.3726 7.0103L48.264 6.29662ZM50.4791 4.73633H50.9113V9.13456H50.4791V4.73633Z" fill="#554D4B"/>
<path id="Vector_11" d="M53.1984 8.13709V6.8091H53.6254V8.13709H55.7119V8.49845H51.6162V8.13709H53.1984ZM52.1951 5.21655H55.0533L55.0018 7.57828H54.5645L54.6056 5.57791H52.1951V5.21655Z" fill="#554D4B"/>
<path id="Vector_12" d="M56.0579 7.83754L58.9161 7.78592V8.14728L56.0579 8.1989V7.83754ZM56.4463 5.58423C56.5441 5.41258 56.6804 5.27707 56.8528 5.18157C57.0265 5.08478 57.2246 5.03703 57.4484 5.03703C57.6748 5.03703 57.8767 5.08478 58.0529 5.18157C58.2305 5.27836 58.3681 5.41258 58.4671 5.58423C58.5662 5.75587 58.6164 5.95333 58.6164 6.17401C58.6164 6.3947 58.5662 6.58957 58.4671 6.75993C58.3681 6.93028 58.2292 7.0645 58.0529 7.16C57.8767 7.25679 57.6748 7.30454 57.4484 7.30454C57.2246 7.30454 57.0265 7.25679 56.8528 7.16C56.6792 7.06321 56.5441 6.93028 56.4463 6.75993C56.3486 6.58957 56.2997 6.39341 56.2997 6.17401C56.2997 5.95462 56.3486 5.75716 56.4463 5.58423ZM56.9133 6.72121C57.0509 6.86188 57.2284 6.93286 57.4484 6.93286C57.6748 6.93286 57.86 6.86317 58.0015 6.72379C58.1443 6.58441 58.215 6.40244 58.215 6.17917C58.215 5.95204 58.1443 5.7662 58.0015 5.62294C57.8587 5.47969 57.6748 5.40871 57.4484 5.40871C57.2284 5.40871 57.0496 5.47969 56.9133 5.62036C56.7756 5.76103 56.7074 5.94558 56.7074 6.17272C56.7074 6.39728 56.7756 6.57925 56.9133 6.72121ZM59.6994 4.73633V9.13456H59.2672V4.73633H59.6994Z" fill="#554D4B"/>
<path id="Vector_13" d="M65.6796 6.92765V7.28385H63.8453V7.80007H65.0557V9.22098H62.2078V7.80007H63.4182V7.28385H61.5891V6.92765H65.6796ZM62.1306 6.16751H62.64V5.24218H62.1306V4.88599H65.129V5.24218H64.6196V6.16751H65.129V6.51855H62.1306V6.16751ZM64.6286 8.87124V8.14723H62.64V8.87124H64.6286ZM64.1861 6.16751V5.24218H63.0786V6.16751H64.1861Z" fill="#554D4B"/>
<path id="Vector_14" d="M66.9209 6.06428C67.0173 5.98556 67.0765 5.9249 67.1009 5.8836C67.1254 5.8423 67.137 5.78552 67.137 5.71325V5.31575H66.1632V4.9544H68.4812V5.31575H67.5537V5.71325C67.5537 5.79326 67.5653 5.85263 67.5872 5.89134C67.609 5.93006 67.6682 5.98814 67.7647 6.06428L68.6252 6.74182L68.3783 7.05156L67.5177 6.37401C67.4457 6.31852 67.3878 6.26561 67.3428 6.21398C67.2977 6.26561 67.2399 6.31852 67.1678 6.37401L66.3073 7.05156L66.0603 6.74182L66.9209 6.06428ZM66.9157 7.31483H69.6916V8.41052H67.3479V8.89061H69.7996V9.23648H66.9299V8.09433H69.2632V7.65038H66.9144L66.9157 7.31483ZM69.6929 4.74146V7.09286H69.2555V4.74146H69.6929Z" fill="#554D4B"/>
<path id="Vector_15" d="M70.5688 5.13905H72.6501V7.30461H70.5688V5.13905ZM72.2269 6.94842V5.49138H70.9908V6.94842H72.2269ZM71.1091 7.77567H71.5567V8.8507H73.993V9.21722H71.1078L71.1091 7.77567ZM73.4631 4.7364H73.9004V6.11085H74.5603V6.47736H73.9004V7.87246H73.4631V4.73511V4.7364Z" fill="#554D4B"/>
<path id="Vector_16" d="M74.7712 6.85037H78.8617V7.2014H74.7712V6.85037ZM75.3848 7.54211H78.2122V8.51906H75.8325V8.87526H78.3511V9.2108H75.3938V8.20804H77.7787V7.86733H75.3835L75.3848 7.54211ZM76.1733 6.4903C75.9881 6.41287 75.844 6.30446 75.7411 6.16508C75.6382 6.0257 75.5868 5.86567 75.5868 5.68758C75.5868 5.50432 75.6382 5.3417 75.7411 5.19974C75.844 5.05649 75.9881 4.9455 76.1733 4.86678C76.3586 4.78805 76.5695 4.74805 76.8075 4.74805C77.048 4.74805 77.2616 4.78805 77.4494 4.86678C77.6359 4.9455 77.7825 5.05778 77.8867 5.19974C77.9909 5.343 78.0436 5.50561 78.0436 5.68758C78.0436 5.86696 77.9909 6.0257 77.8867 6.16508C77.7825 6.30446 77.6359 6.41287 77.4494 6.4903C77.2616 6.56774 77.048 6.60645 76.8075 6.60645C76.5708 6.60645 76.3598 6.56774 76.1733 6.4903ZM76.2299 6.08765C76.3779 6.1896 76.5695 6.23993 76.8062 6.23993C77.0467 6.23993 77.2423 6.1896 77.3928 6.08765C77.5433 5.98569 77.6192 5.85277 77.6192 5.68758C77.6192 5.51851 77.5433 5.38042 77.3928 5.2746C77.2423 5.16748 77.0455 5.11457 76.8062 5.11457C76.5695 5.11457 76.3766 5.16748 76.2299 5.2746C76.082 5.38171 76.0087 5.5198 76.0087 5.68758C76.0087 5.85277 76.082 5.98698 76.2299 6.08765Z" fill="#554D4B"/>
<path id="Vector_17" d="M80.4118 7.22191L83.2289 7.17029V7.53165L82.0596 7.5523V8.98869H81.6274V7.56262L80.4118 7.58327V7.22191ZM81.2338 6.76247C81.064 6.676 80.9315 6.55469 80.8376 6.39853C80.7437 6.24238 80.6961 6.06299 80.6961 5.86295C80.6961 5.66292 80.7437 5.48353 80.8376 5.32608C80.9315 5.16734 81.064 5.04474 81.2338 4.95698C81.4036 4.86922 81.5965 4.82534 81.8139 4.82534C82.0339 4.82534 82.2307 4.86922 82.4043 4.95698C82.578 5.04474 82.713 5.16863 82.8108 5.32608C82.9086 5.48482 82.9574 5.66421 82.9574 5.86295C82.9574 6.0617 82.9086 6.24109 82.8108 6.39853C82.713 6.55469 82.5767 6.6773 82.4043 6.76247C82.2307 6.84894 82.0339 6.89153 81.8139 6.89153C81.5978 6.89153 81.4048 6.84894 81.2338 6.76247ZM81.3135 6.34046C81.4434 6.46306 81.6107 6.52372 81.8126 6.52372C82.0261 6.52372 82.1998 6.46306 82.3349 6.34046C82.4699 6.21786 82.5381 6.05912 82.5381 5.86295C82.5381 5.66679 82.4699 5.50547 82.3349 5.38028C82.1998 5.2551 82.0249 5.19186 81.8126 5.19186C81.6094 5.19186 81.4434 5.2551 81.3135 5.38028C81.1823 5.50547 81.118 5.66679 81.118 5.86295C81.118 6.05912 81.1836 6.21915 81.3135 6.34046ZM83.6315 4.74146H84.0585V9.13452H83.6315V4.74146Z" fill="#554D4B"/>
<path id="Vector_18" d="M84.8162 5.37125H85.8465V4.76727H86.2684V5.37125H87.3039V5.73261H84.8162V5.37125ZM85.1287 6.4579C85.2201 6.29529 85.3461 6.17011 85.5069 6.08106C85.6677 5.99201 85.8517 5.94684 86.0575 5.94684C86.2633 5.94684 86.4485 5.99201 86.6106 6.08106C86.7739 6.17011 86.9013 6.29658 86.9913 6.4579C87.0827 6.61922 87.1277 6.80248 87.1277 7.0051C87.1277 7.20772 87.0827 7.39098 86.9913 7.5523C86.9 7.71491 86.7727 7.84009 86.6106 7.92914C86.4472 8.01819 86.2633 8.06336 86.0575 8.06336C85.8517 8.06336 85.6677 8.01819 85.5069 7.92914C85.3461 7.84009 85.2188 7.71362 85.1287 7.5523C85.0374 7.39098 84.9924 7.20772 84.9924 7.0051C84.9924 6.80248 85.0374 6.61922 85.1287 6.4579ZM85.5867 7.49551C85.7089 7.62328 85.8658 7.68651 86.0575 7.68651C86.253 7.68651 86.4125 7.62328 86.5334 7.49809C86.6556 7.37291 86.7161 7.20772 86.7161 7.0051C86.7161 6.80248 86.6556 6.636 86.5334 6.50823C86.4112 6.38047 86.253 6.31723 86.0575 6.31723C85.8658 6.31723 85.7076 6.38047 85.5867 6.50823C85.4645 6.636 85.404 6.80119 85.404 7.0051C85.404 7.20513 85.4645 7.36904 85.5867 7.49551ZM88.2365 4.74146V6.60244H88.9684V6.96896H88.2365V9.12936H87.7991V4.74146H88.2365Z" fill="#554D4B"/>
<path id="Vector_19" d="M92.8672 4.73633V9.13456H92.435V7.25292H91.3069C91.2002 7.38714 91.0677 7.49167 90.9082 7.56524C90.7487 7.6388 90.5724 7.67622 90.3808 7.67622C90.1505 7.67622 89.9447 7.62331 89.7621 7.5162C89.5807 7.40908 89.4379 7.26195 89.3376 7.07482C89.236 6.8864 89.1858 6.67217 89.1858 6.43083C89.1858 6.1895 89.236 5.97398 89.3376 5.78297C89.4392 5.59197 89.5807 5.44226 89.7621 5.33644C89.9434 5.22932 90.1505 5.17641 90.3808 5.17641C90.5827 5.17641 90.768 5.219 90.9339 5.30288C91.1011 5.38806 91.2375 5.50421 91.343 5.65134H92.435V4.73633H92.8672ZM89.8187 7.05417C89.9627 7.2142 90.1505 7.29422 90.3808 7.29422C90.611 7.29422 90.7975 7.2142 90.9416 7.05417C91.0857 6.89415 91.1577 6.68636 91.1577 6.43083C91.1577 6.1753 91.0857 5.96623 90.9416 5.80362C90.7975 5.63972 90.6097 5.55842 90.3808 5.55842C90.1518 5.55842 89.964 5.63972 89.8187 5.80362C89.6746 5.96752 89.6026 6.17659 89.6026 6.43083C89.6026 6.68507 89.6746 6.89415 89.8187 7.05417ZM92.435 6.89673V6.00753H91.5127C91.5539 6.1353 91.5745 6.27597 91.5745 6.43083C91.5745 6.59603 91.5501 6.75089 91.5025 6.89673H92.435Z" fill="#554D4B"/>
<path id="Vector_20" d="M19.1314 20.9393C18.8703 20.7883 18.577 20.7122 18.2529 20.7122C17.9287 20.7122 17.6367 20.7883 17.3756 20.9393C17.1145 21.0903 16.9087 21.2994 16.7607 21.5665C16.6128 21.8337 16.5382 22.1356 16.5382 22.4738C16.5382 22.808 16.6128 23.1087 16.7607 23.3785C16.9087 23.6482 17.1145 23.8585 17.3756 24.0095C17.6367 24.1605 17.93 24.2367 18.2529 24.2367C18.5757 24.2367 18.869 24.1605 19.1314 24.0095C19.3926 23.8585 19.5984 23.6482 19.7463 23.3785C19.8942 23.11 19.9688 22.808 19.9688 22.4738C19.9688 22.1356 19.8942 21.8337 19.7463 21.5665C19.5984 21.2994 19.3926 21.0903 19.1314 20.9393Z" fill="#E47202"/>
<path id="Vector_21" d="M37.6377 13.9871C36.8762 13.9871 36.3746 12.5868 36.2395 12.1571C35.7095 10.4948 34.9455 8.94358 33.973 7.53558H24.179V17.8084H22.6868L18.6902 12.9805V17.9078H16.9022V9.87666H18.3957L22.3923 14.7046V10.0277H22.3871V5.76106H32.5683C31.7991 4.91058 30.9437 4.13108 30.006 3.43418C26.9857 1.18732 23.3969 0 19.6267 0C15.8565 0 12.2676 1.18732 9.24735 3.43418C8.58232 3.92976 7.95717 4.46534 7.37575 5.03964V13.6619L10.5774 9.87795H12.768L9.62553 13.5135L12.9352 17.9078H10.706L8.46655 14.8427L7.37704 16.1036V17.9065H5.58905V7.10325C4.46867 8.62353 3.59783 10.3232 3.01255 12.1571C2.87749 12.5868 2.37582 13.9871 1.61432 13.9871C0.0823108 13.9871 0.00384521 16.9128 0.00384521 17.4987C0.00384521 18.0846 0.0810244 21.0103 1.61432 21.0103C2.35781 21.0103 2.85819 22.3641 2.99326 22.7797C2.99326 22.7797 2.99326 22.781 2.99326 22.7823C3.15662 23.2985 3.34442 23.8083 3.55538 24.3064H7.93273C7.93273 24.3064 7.93273 24.3064 7.93401 24.3064C8.18227 24.3064 8.3868 24.2509 8.54888 24.1399C8.71095 24.0289 8.79199 23.8844 8.79199 23.7063C8.79199 23.5643 8.74826 23.4456 8.66207 23.3527C8.57589 23.2598 8.43825 23.1798 8.24916 23.1126C8.06007 23.0455 7.79767 22.981 7.46065 22.9191C6.85351 22.8029 6.39815 22.6106 6.09715 22.3383C5.79615 22.0673 5.64436 21.684 5.64436 21.191C5.64436 20.8709 5.74084 20.5922 5.93379 20.3573C6.12673 20.1211 6.38914 19.9404 6.7223 19.814C7.05417 19.6875 7.4272 19.6243 7.84011 19.6243C8.23887 19.6243 8.60033 19.7004 8.92448 19.8514C9.24864 20.0024 9.5059 20.2128 9.69885 20.4825C9.8918 20.7522 9.99727 21.0568 10.014 21.4001H8.76369C8.72768 21.16 8.62348 20.9729 8.45112 20.84C8.27875 20.707 8.04721 20.6399 7.75908 20.6399C7.4838 20.6399 7.26899 20.6903 7.11463 20.7896C6.95898 20.889 6.8818 21.0245 6.8818 21.1936C6.8818 21.3265 6.93068 21.4362 7.02844 21.5201C7.12621 21.604 7.27542 21.6788 7.47737 21.7434C7.67932 21.8079 7.9726 21.8802 8.3585 21.9602C8.95664 22.0854 9.38627 22.2906 9.64482 22.5771C9.90466 22.8636 10.0333 23.2236 10.0333 23.6547C10.0333 23.8934 9.98441 24.1115 9.88794 24.309C9.84806 24.3903 9.80047 24.469 9.74516 24.5426C9.55221 24.7968 9.2898 24.9904 8.95664 25.1259C8.62348 25.2614 8.25431 25.3298 7.84654 25.3298H4.02488C5.2456 27.7612 7.0323 29.9139 9.21905 31.5465C12.2445 33.8062 15.8423 35 19.6241 35C22.0887 35 24.4735 34.4928 26.6744 33.5146V19.7585H27.8849V32.9183C28.6258 32.517 29.3435 32.0588 30.0304 31.5465C32.953 29.3628 35.1641 26.2513 36.2575 22.7836C36.2575 22.7836 36.2575 22.7823 36.2575 22.781C36.3926 22.3654 36.893 21.0116 37.6365 21.0116C39.1685 21.0116 39.2469 18.0859 39.2469 17.5C39.2469 16.9141 39.1698 13.9884 37.6365 13.9884L37.6377 13.9871ZM12.8966 5.99723C12.5905 5.88754 12.431 5.54941 12.5403 5.24355C12.6497 4.93639 12.9854 4.77636 13.2915 4.88606L14.0029 5.1403V4.38274C14.0029 4.05623 14.2666 3.79296 14.5907 3.79296C14.9149 3.79296 15.1786 4.05752 15.1786 4.38274V5.1403L15.8899 4.88606C16.1961 4.77636 16.5318 4.93639 16.6411 5.24355C16.7505 5.5507 16.591 5.88754 16.2848 5.99723L15.5503 6.26051L16.0263 6.87998C16.2244 7.13809 16.1768 7.50848 15.9195 7.70723C15.8127 7.78982 15.6867 7.82983 15.5606 7.82983C15.3844 7.82983 15.2107 7.75111 15.095 7.60011L14.5907 6.94322L14.0852 7.60011C13.9694 7.75111 13.7945 7.82983 13.6196 7.82983C13.4948 7.82983 13.3674 7.78982 13.2607 7.70723C13.0034 7.50848 12.9558 7.13809 13.1539 6.87998L13.6298 6.26051L12.8954 5.99723H12.8966ZM15.486 9.87666V17.9078H13.698V9.87666H15.486ZM14.8351 25.1969H10.7446V19.7585H14.7747V20.8129H11.9551V21.9202H14.5418V22.9746H11.9551V24.1425H14.8351V25.1969ZM20.8011 23.9386C20.549 24.3722 20.1991 24.7129 19.754 24.9594C19.309 25.2059 18.8086 25.3298 18.2542 25.3298C17.6998 25.3298 17.2007 25.2059 16.7543 24.9594C16.3092 24.7129 15.9594 24.3722 15.7073 23.9386C15.4551 23.505 15.3278 23.0171 15.3278 22.4738C15.3278 21.9305 15.4538 21.4427 15.7073 21.009C15.9594 20.5754 16.3092 20.2347 16.7543 19.9882C17.1994 19.7417 17.6998 19.6178 18.2542 19.6178C18.8086 19.6178 19.309 19.7417 19.754 19.9882C20.1991 20.2347 20.549 20.5754 20.8011 21.009C21.0532 21.4427 21.1805 21.9305 21.1805 22.4738C21.1805 23.0171 21.0545 23.505 20.8011 23.9386ZM25.7959 23.1875C25.7959 23.6147 25.7058 23.9902 25.527 24.3154C25.3469 24.6407 25.0935 24.8897 24.7655 25.0666C24.4375 25.2421 24.058 25.3298 23.6284 25.3298C23.2026 25.3298 22.8309 25.2447 22.5106 25.073C22.1916 24.9014 21.9446 24.6678 21.7697 24.3722C21.5947 24.0767 21.5047 23.7489 21.5008 23.3875H22.7113C22.7113 23.5256 22.7473 23.6598 22.8206 23.7915C22.8939 23.9231 22.9994 24.0289 23.137 24.1115C23.2747 24.1941 23.438 24.2354 23.6297 24.2354C23.9268 24.2354 24.161 24.1399 24.3307 23.9489C24.5005 23.7579 24.5867 23.5037 24.5867 23.1888V19.7598H25.7972V23.1888L25.7959 23.1875ZM27.3253 17.5581C26.6744 17.1941 26.1638 16.6908 25.7933 16.0507C25.4241 15.4106 25.2389 14.6892 25.2389 13.8877C25.2389 13.0863 25.4241 12.3649 25.7933 11.7247C26.1638 11.0846 26.6744 10.5813 27.3253 10.2174C27.9762 9.85343 28.7081 9.67017 29.5198 9.67017C30.2002 9.67017 30.8215 9.7889 31.3811 10.0251C31.9406 10.2612 32.4088 10.5839 32.7857 10.9904C33.1626 11.3982 33.4289 11.8538 33.5858 12.3597H31.6216C31.4454 12.0513 31.1753 11.7996 30.8112 11.606C30.4485 11.4124 30.0304 11.3156 29.5596 11.3156C29.0811 11.3156 28.6502 11.4253 28.263 11.646C27.8771 11.8667 27.5736 12.1713 27.3549 12.5623C27.1349 12.9534 27.0256 13.3947 27.0256 13.8877C27.0256 14.3807 27.1349 14.826 27.3549 15.2222C27.5736 15.6197 27.8771 15.9307 28.263 16.1539C28.6489 16.3772 29.0811 16.4895 29.5596 16.4895C29.9584 16.4895 30.3224 16.4172 30.6504 16.2727C30.9772 16.1281 31.2447 15.9358 31.4505 15.6958C31.6563 15.4558 31.7927 15.2015 31.8583 14.9318H29.413V13.4141H33.7633V13.8877C33.7633 14.6892 33.5781 15.4106 33.2089 16.0507C32.8385 16.6908 32.3317 17.1941 31.6872 17.5581C31.0428 17.9233 30.3199 18.1053 29.5211 18.1053C28.7094 18.1053 27.9762 17.9233 27.3253 17.5581ZM33.7698 25.1298H32.7587L30.0523 21.8608V25.1969H28.8419V19.7585H29.8529L32.5593 23.0275V19.6914H33.7698V25.1298Z" fill="#E47202"/>
</g>
<defs>
<clipPath id="clip0_39_1409">
<rect width="146" height="35" fill="white"/>
</clipPath>
</defs>
</svg>
